<?xml version="1.0" encoding="UTF-8" standalone="no"?>
<!-- Created with Inkscape (http://www.inkscape.org/) -->

<svg
   width="72.668808"
   height="87.001175"
   viewBox="0 0 19.226955 23.019059"
   version="1.1"
   id="svg5"
   inkscape:version="1.1.1 (1:1.1+202109281949+c3084ef5ed)"
   sodipodi:docname="logo-dark.svg"
   xmlns:inkscape="http://www.inkscape.org/namespaces/inkscape"
   xmlns:sodipodi="http://sodipodi.sourceforge.net/DTD/sodipodi-0.dtd"
   xmlns="http://www.w3.org/2000/svg"
   xmlns:svg="http://www.w3.org/2000/svg">
  <sodipodi:namedview
     id="namedview7"
     pagecolor="#ffffff"
     bordercolor="#666666"
     borderopacity="1.0"
     inkscape:pageshadow="2"
     inkscape:pageopacity="0"
     inkscape:pagecheckerboard="0"
     inkscape:document-units="mm"
     showgrid="false"
     units="px"
     width="1920px"
     fit-margin-top="0"
     fit-margin-left="0"
     fit-margin-right="0"
     fit-margin-bottom="0"
     inkscape:snap-global="false"
     inkscape:zoom="1.5073232"
     inkscape:cx="-55.064501"
     inkscape:cy="71.650194"
     inkscape:window-width="1920"
     inkscape:window-height="1031"
     inkscape:window-x="0"
     inkscape:window-y="25"
     inkscape:window-maximized="1"
     inkscape:current-layer="layer1" />
  <defs
     id="defs2" />
  <g
     inkscape:label="Layer 1"
     inkscape:groupmode="layer"
     id="layer1"
     transform="translate(-441.04946,-101.66583)"
     style="display:inline">
    <path
       style="fill:#000000;stroke-width:0.0541512"
       d="m 445.17805,124.61655 c -1.8e-4,-0.11626 -0.13531,-0.15877 -0.20201,-0.0636 -0.0608,0.0868 -0.13526,0.0561 -0.15454,-0.0636 -0.0137,-0.0852 -0.0509,-0.11047 -0.14553,-0.0989 -0.0924,0.0113 -0.1632,-0.0336 -0.25945,-0.16466 -0.0728,-0.0991 -0.14727,-0.18047 -0.16553,-0.18082 -0.0183,-3.6e-4 -0.0941,0.0566 -0.1686,0.12652 -0.168,0.15776 -0.23646,0.15884 -0.4424,0.007 -0.22493,-0.16589 -0.36753,-0.1956 -0.54613,-0.11379 -0.14278,0.0654 -0.16038,0.0605 -0.27498,-0.0762 -0.0673,-0.0804 -0.14818,-0.20585 -0.17967,-0.27889 -0.0315,-0.0731 -0.10839,-0.14461 -0.17093,-0.15904 -0.13419,-0.031 -0.2302,-0.29169 -0.23019,-0.62511 3e-5,-0.43765 0.10979,-0.83698 0.33553,-1.22065 0.12344,-0.2098 0.24414,-0.43867 0.26821,-0.50861 0.0241,-0.0699 0.17432,-0.36308 0.33386,-0.65145 0.2324,-0.42007 0.29751,-0.59578 0.32744,-0.88381 0.0673,-0.64817 -0.0871,-1.06212 -0.22624,-0.60631 -0.0343,0.11252 -0.0855,0.21716 -0.1137,0.23252 -0.0282,0.0154 -0.10743,-0.12099 -0.1761,-0.30301 -0.12514,-0.33174 -0.18967,-0.39705 -0.25161,-0.25467 -0.10643,0.24466 -0.31936,-0.14173 -0.36576,-0.66371 -0.0433,-0.48689 0.0862,-0.87388 0.38951,-1.16415 0.12525,-0.11986 0.22772,-0.23009 0.22772,-0.24495 0,-0.0438 -0.18754,-0.0993 -0.3922,-0.11602 -0.2021,-0.0165 -0.35627,-0.10034 -0.35891,-0.19512 -9.1e-4,-0.0315 -0.0782,-0.12362 -0.17175,-0.20461 -0.25841,-0.22367 -0.26223,-0.30111 -0.0327,-0.66314 l 0.20607,-0.32506 v -1.92926 c 0,-1.80446 0.007,-1.93472 0.10543,-2.01345 0.14177,-0.11318 0.33091,-0.10613 0.47112,0.0176 0.094,0.0829 0.11654,0.17453 0.12195,0.49589 0.004,0.2168 0.0127,0.41706 0.0201,0.44503 0.007,0.028 0.0173,0.0909 0.0222,0.13987 0.0197,0.19953 0.12412,0.0715 0.12449,-0.15258 10e-4,-0.57089 0.36945,-1.50839 0.91326,-2.32346 0.16511,-0.24747 0.29301,-0.45591 0.28423,-0.4632 -0.009,-0.007 -0.22352,-0.0741 -0.47721,-0.14841 -0.84613,-0.24794 -1.63855,-0.76489 -2.05019,-1.33749 -1.26552,-1.76035 -0.81654,-4.69264 0.92518,-6.04236 0.2377,-0.1842 0.23148,-0.17363 -0.0765,0.13011 -0.39853,0.39303 -0.7953,1.07209 -0.96579,1.65296 -0.15376,0.52383 -0.20942,1.58306 -0.11357,2.16131 0.0889,0.53638 0.32222,1.11763 0.59217,1.47522 0.23037,0.30516 0.44738,0.5271 0.48391,0.49488 0.0127,-0.0112 -0.0249,-0.14436 -0.0836,-0.29581 -0.30127,-0.77691 -0.35995,-1.96558 -0.13612,-2.75742 0.26847,-0.94977 1.00815,-2.0072 1.70468,-2.43697 l 0.18108,-0.11173 -0.208,0.20609 c -0.52726,0.52237 -1.03104,1.3307 -1.21168,1.94415 -0.13079,0.44419 -0.16238,1.58796 -0.0553,2.00172 0.18555,0.71679 0.6706,1.47759 1.14636,1.79805 0.40446,0.27243 0.44723,0.20592 0.10379,-0.16139 -0.83745,-0.89562 -1.11375,-2.00294 -0.75388,-3.02122 0.43,-1.21676 1.55547,-2.37414 2.88129,-2.96304 0.47988,-0.21314 0.87275,-0.29197 1.45524,-0.29197 0.54856,0 0.67363,0.0634 0.24978,0.12653 -0.29116,0.0434 -0.70105,0.27396 -0.81058,0.45595 -0.0835,0.13867 -0.0798,0.14686 0.13821,0.31314 0.28991,0.22107 0.77389,0.38152 1.24472,0.41264 0.30061,0.0199 0.563,-0.014 1.32606,-0.17128 0.93802,-0.19332 0.96743,-0.19604 2.10441,-0.19504 1.12755,0.001 1.16268,0.004 1.58551,0.14625 1.06366,0.35727 1.98842,0.8679 2.68555,1.48287 0.7376,0.65068 1.05413,1.31807 0.98778,2.08268 -0.0344,0.39657 -0.20406,0.84216 -0.46085,1.21048 -0.21678,0.31092 -0.14909,0.37743 0.11386,0.11189 0.45665,-0.46116 0.6222,-0.99205 0.58509,-1.87631 -0.0198,-0.47107 -0.041,-0.55639 -0.21254,-0.85455 -0.10482,-0.18217 -0.31067,-0.45233 -0.45745,-0.60035 -0.37642,-0.37959 -0.10933,-0.23018 0.33734,0.18871 0.60043,0.5631 0.86459,1.16336 0.86814,1.97271 0.001,0.25176 -0.0361,0.61328 -0.0828,0.80338 -0.10209,0.41642 -0.0462,0.42437 0.26165,0.0373 0.54809,-0.6892 0.59966,-1.3638 0.15508,-2.02851 -0.17318,-0.25894 -0.0967,-0.24625 0.17092,0.0284 0.3482,0.35728 0.46774,0.68035 0.46774,1.26409 0,0.38342 -0.0295,0.5568 -0.14414,0.84616 -0.0793,0.20016 -0.14414,0.38342 -0.14414,0.40723 0,0.0649 0.31657,-0.0923 0.54989,-0.27297 0.25891,-0.20054 0.37724,-0.40133 0.42844,-0.72701 l 0.0403,-0.25627 0.0727,0.15258 c 0.0996,0.20904 0.0462,0.75738 -0.10138,1.04141 -0.0651,0.1252 -0.10909,0.23577 -0.0978,0.24571 0.0342,0.0302 0.23077,-0.0777 0.49089,-0.26939 0.13572,-0.10003 0.25883,-0.17122 0.27358,-0.1582 0.0727,0.0641 -0.34314,0.58699 -0.69601,0.8752 l -0.39804,0.32509 0.37341,0.34918 c 0.20538,0.19206 0.40176,0.42094 0.43641,0.50862 0.0762,0.19271 0.0206,0.2034 -0.16265,0.0313 -0.25144,-0.2361 -0.92144,-0.5608 -0.92144,-0.44655 0,0.0234 0.10648,0.15618 0.23663,0.29512 0.48978,0.52285 0.75788,1.19001 0.75616,1.88166 -0.002,0.71637 -0.30147,1.30106 -1.36863,2.67018 -1.3349,1.71262 -1.39399,1.80854 -1.52939,2.48237 -0.0628,0.31247 -0.0984,0.38301 -0.22341,0.44299 l -0.14873,0.0713 0.13637,0.002 c 0.13209,0.002 0.1351,0.0112 0.096,0.29448 -0.0222,0.16085 -0.062,0.31236 -0.0885,0.3367 -0.0637,0.0586 -0.55601,-0.08 -0.51859,-0.14597 0.0324,-0.0572 0.0838,-0.0576 0.28068,-0.002 0.20494,0.0576 0.12812,-0.0793 -0.0824,-0.1468 -0.0932,-0.0299 -0.23254,-0.086 -0.3096,-0.12463 -0.1364,-0.0684 -0.13717,-0.0722 -0.0288,-0.14241 0.10869,-0.0704 0.10809,-0.0743 -0.0252,-0.16332 -0.0993,-0.0664 -0.12604,-0.1202 -0.0981,-0.1978 0.0282,-0.0784 0.005,-0.12214 -0.0859,-0.16529 -0.0879,-0.0415 -0.1063,-0.0745 -0.0629,-0.11284 0.0434,-0.0383 0.0874,-0.0351 0.15033,0.011 0.0737,0.054 0.0889,0.0514 0.0889,-0.0149 0,-0.044 -0.0454,-0.10259 -0.10089,-0.13021 -0.0808,-0.0402 -0.0866,-0.063 -0.0288,-0.11442 0.0396,-0.0353 0.0721,-0.0825 0.0721,-0.10489 0,-0.0724 -0.15959,-0.0431 -0.19382,0.0356 -0.0183,0.042 -0.0757,0.0763 -0.12764,0.0763 -0.0926,0 -0.0921,-0.008 0.0161,-0.24158 0.0175,-0.0378 -0.0154,-0.0636 -0.0814,-0.0636 -0.0686,0 -0.56841,-0.41608 -1.31227,-1.09251 -1.07399,-0.97661 -1.21678,-1.0891 -1.34617,-1.06045 -0.11785,0.0261 -0.13803,0.0166 -0.10859,-0.0511 0.0237,-0.0546 -0.007,-0.10338 -0.0887,-0.14206 -0.0934,-0.0441 -0.13036,-0.0443 -0.14679,-9e-4 -0.0345,0.0913 -0.11127,0.0682 -0.14438,-0.0436 -0.0353,-0.11919 -0.18684,-0.13561 -0.23477,-0.0254 -0.0482,0.11086 -0.15212,0.0935 -0.15212,-0.0254 0,-0.0678 -0.0384,-0.10172 -0.1153,-0.10172 -0.0641,0 -0.11531,0.0339 -0.11531,0.0763 0,0.11251 -0.12122,0.0928 -0.15626,-0.0254 -0.0314,-0.10601 -0.0189,-0.10421 -0.91036,-0.13012 -0.15855,-0.005 -0.54189,-0.0253 -0.85187,-0.046 -0.39996,-0.0267 -0.58705,-0.0205 -0.64435,0.0215 -0.0444,0.0325 -0.12806,0.052 -0.18591,0.0433 -0.0799,-0.012 -0.10083,0.0117 -0.0871,0.0986 0.0146,0.0929 -0.01,0.11444 -0.12905,0.11444 -0.11816,0 -0.14438,0.0225 -0.13334,0.11443 0.009,0.0732 -0.0174,0.11444 -0.0727,0.11444 -0.0476,0 -0.0829,-0.0398 -0.0786,-0.0885 0.006,-0.072 -0.0204,-0.0815 -0.14413,-0.0509 -0.0836,0.0207 -0.84986,0.0342 -1.70273,0.0299 l -1.55067,-0.008 0.16427,0.11555 c 0.19314,0.13586 0.21266,0.12679 -0.55105,0.25611 -0.26954,0.0456 -0.53707,0.0949 -0.59452,0.1095 -0.091,0.0231 -0.0997,0.004 -0.0672,-0.14884 0.0322,-0.15124 0.0153,-0.19062 -0.12309,-0.28662 -0.11002,-0.0763 -0.22259,-0.10653 -0.35846,-0.0961 -0.18287,0.014 -0.21948,0.0484 -0.47707,0.44751 l -0.27899,0.43231 -0.002,0.82864 -0.002,0.82865 0.36034,0.15038 c 0.4625,0.19301 0.6863,0.1958 0.85144,0.0106 0.17595,-0.19733 0.12253,-0.44549 -0.14232,-0.6612 -0.21193,-0.17262 -0.19917,-0.19962 0.0542,-0.11465 0.18263,0.0613 0.40212,0.45873 0.35152,0.63656 -0.0572,0.20114 -0.31682,0.42655 -0.55691,0.48358 -0.12453,0.0296 -0.22641,0.0772 -0.22641,0.10573 0,0.0286 0.0894,0.15519 0.19857,0.28136 0.12967,0.14981 0.22115,0.32964 0.26367,0.51827 0.13049,0.57902 0.13808,0.59441 0.29025,0.58908 0.0776,-0.003 0.18656,-0.0223 0.24206,-0.0436 0.0855,-0.0328 0.10089,-0.0107 0.10089,0.14481 0,0.1009 0.0259,0.18346 0.0577,0.18346 0.0317,0 0.0576,-0.0907 0.0576,-0.20166 0,-0.21197 0.10396,-0.30695 0.33597,-0.30695 0.0621,0 0.1256,-0.0291 0.14108,-0.0647 0.0295,-0.0678 0.84447,-0.51573 0.88051,-0.48394 0.0114,0.0101 0.0463,0.0747 0.0775,0.14361 0.0513,0.11328 0.057,0.10512 0.0604,-0.085 0.003,-0.16537 0.034,-0.22786 0.14576,-0.29245 0.18761,-0.10844 0.23118,-0.10391 0.31045,0.0323 0.0611,0.10505 0.064,0.10145 0.0348,-0.044 -0.0247,-0.1227 0.002,-0.19433 0.1203,-0.31788 0.1861,-0.19509 0.21803,-0.1972 0.29757,-0.0196 0.0608,0.13579 0.0628,0.13364 0.0688,-0.0735 0.004,-0.14749 0.0494,-0.25736 0.14642,-0.35603 l 0.14028,-0.1427 0.0926,0.20344 c 0.0509,0.1119 0.11802,0.24922 0.1491,0.30517 0.0507,0.0913 0.0542,0.0887 0.0338,-0.0254 -0.0125,-0.0699 -0.0559,-0.23149 -0.0966,-0.35902 -0.0788,-0.24714 -0.0551,-0.41764 0.0808,-0.58155 0.0792,-0.0956 0.0957,-0.0788 0.28749,0.29245 0.1119,0.2166 0.21743,0.39382 0.23452,0.39382 0.0171,0 -0.0592,-0.22009 -0.16962,-0.48909 l -0.2007,-0.48909 0.15849,0.0295 c 0.0872,0.0162 0.46983,0.0555 0.85035,0.0874 0.38052,0.0318 0.69925,0.064 0.70827,0.0715 0.009,0.007 -0.01,0.11384 -0.0418,0.23642 -0.1683,0.644 0.048,1.79028 0.55875,2.96078 0.15029,0.34441 0.23154,0.43674 0.67742,0.76969 0.2283,0.17048 0.23059,0.1757 0.22747,0.5193 -0.004,0.42097 -0.27995,1.05119 -0.57436,1.31091 -0.10288,0.0908 -0.22954,0.24399 -0.28147,0.34051 -0.13488,0.25075 -0.54781,0.64297 -0.78418,0.74484 -0.16882,0.0728 -0.20467,0.1175 -0.21942,0.27379 -0.0167,0.17684 0.11708,0.76248 0.30875,1.35172 l 0.0868,0.26701 0.27225,-0.001 c 0.39631,-0.002 1.17338,-0.16503 2.13677,-0.44939 1.79796,-0.53068 3.29813,-1.26055 4.39819,-2.13983 l 0.38191,-0.30526 -0.0849,-0.31961 c -0.13723,-0.5167 -0.22796,-1.33335 -0.23891,-2.15059 -0.0116,-0.86863 -0.0449,-1.09308 -0.17516,-1.18089 -0.0794,-0.0535 -0.071,-0.0622 0.0619,-0.0636 0.18803,-0.002 0.33623,0.0446 0.33623,0.10555 0,0.025 -0.0421,0.0454 -0.0935,0.0454 -0.0766,0 -0.0805,0.0138 -0.0218,0.0762 0.0572,0.0608 0.0571,0.10745 -9e-4,0.23054 -0.12161,0.25899 0.0658,1.86482 0.32625,2.79571 l 0.14943,0.53403 -0.4825,0.39976 c -1.54569,1.28065 -4.525,2.45318 -6.63662,2.6119 l -0.38863,0.0292 -0.0824,-0.17405 c -0.0636,-0.13437 -0.37987,-1.42034 -0.37987,-1.54478 0,-0.0138 -0.0345,-0.0251 -0.0767,-0.0251 -0.0422,0 -0.16074,0.10323 -0.26345,0.2294 -0.10271,0.12616 -0.26278,0.26408 -0.3557,0.30647 -0.0929,0.0424 -0.16896,0.10077 -0.16896,0.12974 0,0.0334 -0.0922,0.0405 -0.25137,0.0194 -0.2279,-0.0301 -0.2715,-0.0177 -0.46711,0.13385 -0.11866,0.0919 -0.25851,0.17214 -0.31077,0.17828 -0.0523,0.006 -0.25672,0.04 -0.45434,0.0753 -0.26169,0.0467 -0.41301,0.0496 -0.55688,0.0106 -0.19178,-0.0519 -0.20514,-0.0461 -0.45759,0.20018 -0.14302,0.13951 -0.28768,0.23859 -0.32147,0.22017 -0.0338,-0.0184 -0.11363,0.042 -0.17742,0.13432 -0.10243,0.1482 -0.11601,0.15444 -0.1162,0.0534 z m 0.61452,-6.84073 c -0.016,-0.035 -0.0291,-0.006 -0.0291,0.0636 0,0.0699 0.0131,0.0985 0.0291,0.0636 0.016,-0.035 0.016,-0.0922 0,-0.12715 z m 1.1543,-0.0477 c -0.0184,-0.0406 -0.0321,-0.0285 -0.0348,0.0307 -0.002,0.0536 0.0111,0.0837 0.0303,0.0668 0.0192,-0.0169 0.0212,-0.0608 0.005,-0.0975 z m 9.68432,-0.50589 c -0.0763,-0.0391 -0.12448,-0.0387 -0.17008,0.002 -0.0464,0.0409 -0.0176,0.0557 0.10645,0.0546 0.1491,-0.001 0.15695,-0.008 0.0636,-0.0561 z m -8.13408,-0.53085 c -0.0212,-0.0745 -0.0515,-0.12408 -0.0674,-0.11009 -0.0159,0.014 -0.0115,0.0864 0.01,0.16095 0.0212,0.0745 0.0515,0.12408 0.0674,0.11009 0.0159,-0.014 0.0115,-0.0864 -0.01,-0.16095 z m 7.75047,0.13079 c 0,-0.028 -0.026,-0.0509 -0.0577,-0.0509 -0.0317,0 -0.0577,0.0229 -0.0577,0.0509 0,0.028 0.026,0.0509 0.0577,0.0509 0.0317,0 0.0577,-0.0229 0.0577,-0.0509 z m -0.0805,-0.59655 c -0.0586,-0.0517 -0.10697,0.0261 -0.0589,0.0948 0.0363,0.0519 0.0499,0.0519 0.0694,1.8e-4 0.0134,-0.0353 0.009,-0.0781 -0.0106,-0.095 z m -0.11531,-0.30517 c -0.0586,-0.0517 -0.10697,0.0261 -0.0589,0.0948 0.0363,0.0518 0.0499,0.0519 0.0694,1.8e-4 0.0134,-0.0353 0.009,-0.0781 -0.0106,-0.095 z m -0.24906,-1.07698 c 0.14566,-0.21751 0.12095,-0.24596 -0.072,-0.0829 -0.094,0.0795 -0.15733,0.16384 -0.14073,0.18753 0.053,0.0756 0.11123,0.0469 0.21273,-0.10464 z m -0.1317,-0.28675 c 0.29692,-0.33429 0.28271,-0.38489 -0.0351,-0.125 -0.15393,0.12588 -0.28944,0.23308 -0.30113,0.23821 -0.0338,0.0148 0.0505,0.11802 0.0946,0.11589 0.0219,-0.001 0.13064,-0.10416 0.24163,-0.2291 z m -0.18186,-0.23943 c 0.12395,-0.14686 0.29341,-0.3225 0.37658,-0.39032 0.0832,-0.0678 0.1512,-0.14552 0.1512,-0.17267 0,-0.0272 -0.1362,0.0632 -0.30268,0.20075 -0.16648,0.13756 -0.37825,0.2978 -0.4706,0.35607 -0.11365,0.0717 -0.15615,0.13296 -0.13153,0.18957 0.0596,0.13693 0.13946,0.0981 0.37703,-0.1834 z m -0.18735,-0.27323 c 0.43149,-0.33419 0.51025,-0.52177 0.11354,-0.27046 -0.4638,0.29383 -0.63007,0.43455 -0.58665,0.49651 0.0623,0.0889 0.0731,0.0838 0.47311,-0.22605 z m -0.19105,-0.25194 c 0.21301,-0.15598 0.38729,-0.30474 0.38729,-0.3306 0,-0.0668 -0.0309,-0.0599 -0.24364,0.0545 -0.19482,0.10478 -0.33291,0.13095 -0.33291,0.0631 0,-0.0214 0.14427,-0.13821 0.3206,-0.2597 0.17633,-0.12148 0.30873,-0.23135 0.29422,-0.24415 -0.0323,-0.0285 -0.60326,0.23072 -0.64754,0.29392 -0.0175,0.0249 -0.0691,0.0453 -0.11482,0.0453 -0.1225,0 -0.10106,-0.14069 0.0269,-0.17651 0.0605,-0.0169 0.12454,-0.0643 0.14233,-0.10515 0.0178,-0.0409 0.0656,-0.0749 0.10622,-0.0755 0.11247,-0.002 0.35673,-0.18355 0.29314,-0.21821 -0.0307,-0.0168 -0.14962,0.0258 -0.26423,0.0944 -0.23886,0.14318 -0.32979,0.15687 -0.32979,0.0496 0,-0.0414 0.10687,-0.12334 0.23748,-0.18213 0.16021,-0.0721 0.2185,-0.12362 0.17913,-0.15835 -0.0394,-0.0347 -0.10552,-0.0242 -0.20331,0.0323 -0.0958,0.0553 -0.15772,0.0656 -0.18253,0.0302 -0.0499,-0.0713 0.0133,-0.15534 0.11677,-0.15534 0.13779,0 0.0941,-0.088 -0.1043,-0.21025 -0.10305,-0.0635 -0.20035,-0.12966 -0.2162,-0.14704 -0.0159,-0.0174 -0.0677,-0.0473 -0.11531,-0.0666 -0.0476,-0.0192 -0.16432,-0.0788 -0.25945,-0.13244 -0.22355,-0.12594 -0.25944,-0.12638 -0.25944,-0.003 0,0.0675 -0.0384,0.10172 -0.11415,0.10172 -0.1268,0 -0.5238,-0.12177 -0.75957,-0.23298 -0.0842,-0.0397 -0.24633,-0.0722 -0.36035,-0.0722 -0.17268,0 -0.20731,-0.018 -0.20731,-0.10766 0,-0.0881 0.0235,-0.10129 0.12973,-0.0726 0.0713,0.0193 0.16864,0.0352 0.2162,0.0353 0.0476,1.5e-4 0.13837,0.0183 0.20179,0.0404 0.23297,0.081 0.46388,0.16846 0.56448,0.21391 0.12487,0.0564 0.21989,0.0145 0.17919,-0.079 -0.0269,-0.062 -0.85673,-0.31435 -0.9065,-0.2757 -0.034,0.0264 -0.21192,-0.11821 -0.21192,-0.17222 0,-0.10004 0.95623,0.12185 1.11011,0.25761 0.0363,0.032 0.10164,0.0583 0.14514,0.0583 0.0915,0 0.60918,0.25648 0.63775,0.31599 0.0106,0.022 0.0502,0.04 0.0881,0.04 0.0379,0 0.11815,0.0508 0.17838,0.11283 0.0828,0.0853 0.11606,0.0955 0.1363,0.0419 0.0349,-0.0923 -0.35841,-0.36515 -0.76791,-0.53273 -0.0951,-0.0389 -0.19234,-0.088 -0.21603,-0.10902 -0.0771,-0.0684 -0.63555,-0.22862 -1.25417,-0.35973 -0.68266,-0.14469 -1.72534,-0.19159 -2.63317,-0.11844 -1.17262,0.0945 -2.71411,0.46875 -3.08545,0.74912 -0.0535,0.0404 -0.12484,0.0584 -0.15854,0.04 -0.0955,-0.0521 -0.0721,-0.17967 0.0396,-0.21603 0.0555,-0.0181 0.11416,-0.0499 0.13037,-0.0708 0.0372,-0.0478 0.44326,-0.18318 0.89301,-0.29767 0.19026,-0.0484 0.38484,-0.10188 0.43241,-0.11877 0.0476,-0.0169 0.37187,-0.0816 0.72069,-0.14373 0.54516,-0.0971 0.82846,-0.11355 2.01792,-0.11688 1.35955,-0.004 1.39272,-0.001 1.89939,0.13833 0.66261,0.18271 1.30141,0.41777 1.56636,0.57637 0.2003,0.11991 0.30352,0.13156 0.22949,0.0259 -0.0761,-0.1086 -0.94884,-0.50285 -1.30256,-0.58841 -0.20612,-0.0498 -0.43963,-0.1149 -0.5189,-0.14456 -0.60149,-0.22498 -3.05695,-0.23209 -4.4106,-0.0128 -0.87766,0.1422 -1.04363,0.18132 -1.54053,0.36315 -0.18138,0.0664 -0.38461,0.12068 -0.45163,0.12068 -0.15218,0 -0.12142,-0.10904 0.05,-0.17736 0.0693,-0.0276 0.12599,-0.0677 0.12599,-0.089 0,-0.0213 0.0504,-0.0388 0.11191,-0.0388 0.0615,0 0.12794,-0.0229 0.14754,-0.0509 0.0515,-0.0735 -0.14995,-0.0625 -0.42516,0.0232 -0.13083,0.0407 -0.23787,0.0663 -0.23787,0.0569 0,-0.009 0.0649,-0.16913 0.14414,-0.35493 0.17034,-0.39922 0.1918,-0.86724 0.0517,-1.12765 -0.0508,-0.0945 -0.19012,-0.24967 -0.30955,-0.34486 -0.21324,-0.16994 -0.7649,-0.38879 -0.98006,-0.38879 -0.12653,0 -0.38843,0.27094 -0.79218,0.81951 -0.53542,0.72747 -0.96696,1.61329 -1.03583,2.1262 l -0.0313,0.23311 0.34232,0.0574 c 0.18828,0.0316 0.44856,0.11654 0.57839,0.18885 0.28209,0.15709 0.40708,0.16995 2.07558,0.21368 0.9357,0.0245 1.28282,0.0181 1.28282,-0.0237 0,-0.0315 0.0584,-0.0808 0.12972,-0.10957 0.28021,-0.11285 0.44683,-0.20726 0.44683,-0.25318 0,-0.0264 0.0633,-0.0481 0.14073,-0.0481 0.0774,0 0.15678,-0.0229 0.17637,-0.0509 0.0574,-0.082 0.14442,-0.0584 0.14089,0.0381 -0.002,0.0589 -0.13985,0.14653 -0.40759,0.25925 -0.22239,0.0936 -0.39067,0.1823 -0.37396,0.19704 0.0648,0.0572 0.66949,0.0742 0.66949,0.0189 0,-0.0306 0.0389,-0.0556 0.0865,-0.0556 0.0476,0 0.0865,0.0229 0.0865,0.0509 0,0.0664 0.78909,0.067 0.8356,5.5e-4 0.0218,-0.0311 0.0851,-0.0215 0.16605,0.0253 0.13801,0.0798 0.95862,0.0916 0.95862,0.0139 0,-0.0219 0.0534,-0.0397 0.11871,-0.0397 0.0653,0 0.10268,0.0229 0.0831,0.0509 -0.0196,0.028 0.0149,0.0509 0.0767,0.0509 0.0716,0 0.10941,-0.0323 0.10431,-0.089 -0.004,-0.049 0.0309,-0.089 0.0785,-0.089 0.0506,0 0.085,0.0444 0.0828,0.10701 -0.003,0.0981 0.0302,0.10779 0.40358,0.1165 0.22399,0.005 0.57417,0.0326 0.77816,0.0608 0.31561,0.0436 0.37835,0.0395 0.42087,-0.0275 0.0759,-0.11959 0.15954,-0.0942 0.15954,0.0484 0,0.13964 0.13929,0.17619 0.19381,0.0509 0.0517,-0.11896 0.16228,-0.0896 0.14171,0.0377 -0.014,0.0864 0.0584,0.16874 0.29868,0.34008 0.17441,0.12436 0.351,0.26762 0.39244,0.31834 0.0414,0.0507 0.12853,0.0922 0.19355,0.0922 0.0787,0 0.10765,0.0243 0.0866,0.0726 -0.037,0.0851 0.0881,0.19167 0.20054,0.1708 0.043,-0.008 0.0816,0.0198 0.0859,0.0618 0.014,0.13747 0.0205,0.15258 0.0662,0.15258 0.0248,0 0.2194,-0.12761 0.43241,-0.28359 z m -0.38144,-0.005 c -0.0702,-0.0619 -0.0397,-0.16954 0.048,-0.16954 0.048,0 0.0865,0.0452 0.0865,0.10173 0,0.10132 -0.0614,0.13229 -0.13453,0.0678 z m -0.32671,-0.24282 c 0,-0.0886 0.0945,-0.14748 0.17045,-0.1061 0.0767,0.0418 0.008,0.17938 -0.0901,0.17938 -0.0442,0 -0.0803,-0.033 -0.0803,-0.0733 z m -0.28828,-0.23188 c 0,-0.028 0.0519,-0.0509 0.11531,-0.0509 0.0634,0 0.11531,0.0229 0.11531,0.0509 0,0.028 -0.0519,0.0509 -0.11531,0.0509 -0.0634,0 -0.11531,-0.0229 -0.11531,-0.0509 z m 0.35222,-0.12046 c -0.0514,-0.0546 -0.0525,-0.0832 -0.004,-0.10962 0.094,-0.0513 0.21068,0.0626 0.1337,0.13052 -0.0417,0.0368 -0.0814,0.0304 -0.12964,-0.0209 z m -0.60049,-0.0138 c -0.0461,-0.0406 0.006,-0.12006 0.0787,-0.12006 0.0298,0 0.0543,0.0343 0.0543,0.0763 0,0.0786 -0.068,0.10105 -0.13296,0.0438 z m -0.29141,-0.10449 c -0.0689,-0.0608 -0.0372,-0.16815 0.0496,-0.16815 0.0476,0 0.0865,0.033 0.0865,0.0733 0,0.085 -0.0823,0.14233 -0.1361,0.0949 z m 0.56851,-0.11729 c 0.0196,-0.028 0.073,-0.0509 0.11871,-0.0509 0.0457,0 0.0831,0.0229 0.0831,0.0509 0,0.028 -0.0534,0.0509 -0.11871,0.0509 -0.0653,0 -0.10268,-0.0229 -0.0831,-0.0509 z m -0.25945,-0.15682 c 0,-0.12395 0.13473,-0.10643 0.16278,0.0212 0.011,0.0502 -0.0184,0.0848 -0.0721,0.0848 -0.0535,0 -0.0907,-0.0435 -0.0907,-0.10596 z m 0.57655,0 c 0,-0.12395 0.13473,-0.10643 0.16278,0.0212 0.011,0.0502 -0.0184,0.0848 -0.0721,0.0848 -0.0535,0 -0.0907,-0.0435 -0.0907,-0.10596 z m -1.88819,-0.0832 c -0.11378,-0.036 -0.084,-0.11606 0.0432,-0.11606 0.0634,0 0.11531,0.0216 0.11531,0.0479 0,0.0651 -0.0713,0.0958 -0.15855,0.0682 z m 1.02337,-0.0398 c 0,-0.042 0.0259,-0.0763 0.0576,-0.0763 0.0317,0 0.0577,0.0343 0.0577,0.0763 0,0.042 -0.0259,0.0763 -0.0577,0.0763 -0.0317,0 -0.0576,-0.0343 -0.0576,-0.0763 z m 0.64124,0.007 c -0.0701,-0.0745 -0.0303,-0.13463 0.0891,-0.13463 0.0859,0 0.10524,0.13112 0.0257,0.17446 -0.0281,0.0153 -0.0798,-0.003 -0.1148,-0.0398 z m -2.08261,-0.11343 c 0,-0.0443 0.0308,-0.0715 0.0685,-0.0604 0.10691,0.0314 0.12464,0.14093 0.0228,0.14093 -0.0502,0 -0.0913,-0.0362 -0.0913,-0.0805 z m 1.09544,-0.0212 c 0,-0.0656 0.0292,-0.10161 0.0721,-0.089 0.0396,0.0117 0.0721,0.0517 0.0721,0.089 0,0.0373 -0.0324,0.0773 -0.0721,0.089 -0.0429,0.0126 -0.0721,-0.0234 -0.0721,-0.089 z m -1.77625,-0.004 c 0.0114,-0.0301 0.0453,-0.0547 0.0754,-0.0547 0.0301,0 0.0641,0.0246 0.0754,0.0547 0.0114,0.0301 -0.0226,0.0547 -0.0754,0.0547 -0.0528,0 -0.0868,-0.0246 -0.0754,-0.0547 z m 0.33488,0.004 c 0,-0.028 0.0389,-0.0509 0.0865,-0.0509 0.0476,0 0.0865,0.0229 0.0865,0.0509 0,0.028 -0.0389,0.0509 -0.0865,0.0509 -0.0476,0 -0.0865,-0.0229 -0.0865,-0.0509 z m 2.15682,-0.0191 c -0.0488,-0.11229 0.0161,-0.16962 0.10421,-0.0919 0.052,0.0459 0.0522,0.0743 9e-4,0.11956 -0.0513,0.0452 -0.0763,0.0387 -0.10513,-0.0276 z m 0.57521,-0.003 c -0.019,-0.0437 -0.0667,-0.0795 -0.10597,-0.0795 -0.0392,0 -0.11833,-0.0458 -0.17573,-0.10172 -0.0574,-0.0559 -0.13925,-0.10172 -0.1819,-0.10172 -0.0788,0 -0.10663,-0.10997 -0.0422,-0.16681 0.0394,-0.0348 0.37137,0.15681 0.44317,0.25581 0.0254,0.035 0.0837,0.0636 0.12973,0.0636 0.0949,0 0.11362,0.13022 0.0256,0.17824 -0.0319,0.0174 -0.0736,-0.004 -0.0926,-0.0479 z m -5.70436,-0.0331 c -0.0594,-0.0848 0.0742,-0.18206 0.15375,-0.11189 0.0665,0.0587 0.0249,0.16718 -0.0642,0.16718 -0.028,0 -0.0683,-0.0249 -0.0896,-0.0553 z m 1.05207,0.0228 c -0.0538,-0.0475 0.0112,-0.12006 0.10753,-0.12006 0.0457,0 0.0831,0.0343 0.0831,0.0763 0,0.0766 -0.12171,0.10456 -0.19061,0.0438 z m 3.04453,-0.0183 c -0.0483,-0.0689 0.0169,-0.15259 0.11871,-0.15259 0.0935,0 0.0973,0.01 0.0481,0.123 -0.0398,0.0915 -0.11421,0.10466 -0.1668,0.0296 z m -2.70067,-0.0344 c -0.0789,-0.0696 -0.0334,-0.1691 0.0774,-0.1691 0.0634,0 0.11531,0.0201 0.11531,0.0446 0,0.0667 -0.14904,0.16296 -0.19268,0.12446 z m 2.38357,-0.0674 c -0.0681,-0.0371 -0.0709,-0.0595 -0.0139,-0.10977 0.0557,-0.0491 0.087,-0.0496 0.14077,-0.002 0.0935,0.0825 -0.0112,0.17493 -0.12684,0.11189 z m 1.00585,-0.004 c -0.0594,-0.0848 0.0742,-0.18206 0.15375,-0.11189 0.0665,0.0587 0.0249,0.16718 -0.0642,0.16718 -0.028,0 -0.0683,-0.0249 -0.0896,-0.0553 z m -4.51025,-0.0543 c 0.0142,-0.0376 0.0721,-0.0763 0.12859,-0.086 0.0657,-0.0112 0.0935,0.007 0.0769,0.0509 -0.0142,0.0376 -0.0721,0.0763 -0.12859,0.086 -0.0657,0.0112 -0.0935,-0.007 -0.0769,-0.0509 z m 1.42882,-0.043 c 0,-0.028 0.0519,-0.0509 0.11531,-0.0509 0.0634,0 0.11531,0.0229 0.11531,0.0509 0,0.028 -0.0519,0.0509 -0.11531,0.0509 -0.0634,0 -0.11531,-0.0229 -0.11531,-0.0509 z m 1.76633,-0.0251 c 0.0182,-0.0418 0.0563,-0.0633 0.0847,-0.0479 0.0814,0.0444 0.0602,0.12385 -0.0331,0.12385 -0.0514,0 -0.0717,-0.0298 -0.0516,-0.076 z m -2.85158,-0.0538 c 0.0261,-0.11048 0.12839,-0.11724 0.1518,-0.01 0.0122,0.0557 -0.0161,0.089 -0.0755,0.089 -0.0554,0 -0.0872,-0.0329 -0.0763,-0.079 z m 1.43118,0.0366 c 0,-0.0716 0.0649,-0.10455 0.14944,-0.0759 0.0443,0.015 0.0662,0.0477 0.0486,0.0728 -0.0402,0.0574 -0.19806,0.06 -0.19806,0.003 z m 0.35612,-0.0366 c 0.0261,-0.11048 0.1284,-0.11724 0.1518,-0.01 0.0122,0.0557 -0.0161,0.089 -0.0755,0.089 -0.0554,0 -0.0872,-0.0329 -0.0763,-0.079 z m 0.33574,0.003 c 0,-0.042 0.0389,-0.0763 0.0865,-0.0763 0.0476,0 0.0865,0.0343 0.0865,0.0763 0,0.042 -0.0389,0.0763 -0.0865,0.0763 -0.0476,0 -0.0865,-0.0343 -0.0865,-0.0763 z m 0.30266,0.0127 c 0.0363,-0.0962 0.21623,-0.10992 0.21623,-0.0165 0,0.0472 -0.0493,0.08 -0.12011,0.08 -0.0704,0 -0.11019,-0.0263 -0.0961,-0.0636 z m 1.4414,0 c 0.0132,-0.035 0.0586,-0.0636 0.10089,-0.0636 0.0423,0 0.0877,0.0286 0.1009,0.0636 0.0143,0.0378 -0.0266,0.0636 -0.1009,0.0636 -0.0743,0 -0.11518,-0.0258 -0.10089,-0.0636 z m -6.14505,-0.0212 c -0.0211,-0.0186 -0.0384,-0.0525 -0.0384,-0.0752 0,-0.0374 0.81355,-0.39766 0.95131,-0.42127 0.10123,-0.0173 0.34216,-0.0849 0.46124,-0.1294 0.24235,-0.0905 0.34778,-0.1189 0.40038,-0.10791 0.03,0.006 0.10779,-0.0114 0.17297,-0.0393 0.0652,-0.0279 0.19634,-0.0623 0.29147,-0.0765 0.0951,-0.0142 0.28972,-0.0505 0.43241,-0.0807 0.38694,-0.0819 1.92947,-0.11258 2.35283,-0.0468 0.28736,0.0446 0.35851,0.0737 0.34206,0.1395 -0.0114,0.0457 -0.0582,0.0744 -0.10384,0.0637 -0.50856,-0.11871 -1.96207,-0.11107 -2.58939,0.0136 -0.20521,0.0408 -0.39445,0.0625 -0.42053,0.0483 -0.0261,-0.0142 -0.0787,-0.004 -0.11696,0.0221 -0.0383,0.0264 -0.24467,0.089 -0.45871,0.13908 -0.21405,0.0501 -0.38917,0.10797 -0.38917,0.12861 0,0.0207 -0.11615,0.0529 -0.25811,0.0717 -0.14195,0.0188 -0.27219,0.0543 -0.28942,0.0789 -0.0422,0.0602 -0.37347,0.20372 -0.47029,0.20372 -0.0427,0 -0.0776,0.0229 -0.0776,0.0509 0,0.0572 -0.13323,0.069 -0.19218,0.017 z m 5.81541,-0.0143 c -0.0507,-0.0724 0.014,-0.15527 0.12106,-0.15527 0.0505,0 0.0795,0.0357 0.0687,0.0848 -0.0224,0.10215 -0.13757,0.14491 -0.18973,0.0705 z m -3.2468,-0.0614 c 0.0299,-0.0792 0.15891,-0.0931 0.16343,-0.0175 0.002,0.028 -0.0402,0.0588 -0.0931,0.0684 -0.0601,0.011 -0.0865,-0.008 -0.0703,-0.0509 z m 0.37179,-0.026 c -0.0702,-0.062 -0.0397,-0.16954 0.048,-0.16954 0.048,0 0.0865,0.0452 0.0865,0.10172 0,0.10133 -0.0614,0.13229 -0.13453,0.0678 z m 2.58734,-0.0134 c -0.0382,-0.0545 0.1105,-0.16665 0.16137,-0.12178 0.0209,0.0184 0.0379,0.0501 0.0379,0.0704 0,0.057 -0.16546,0.0997 -0.19931,0.0514 z m -3.86225,-0.05 c -0.0619,-0.0883 0.009,-0.14295 0.23397,-0.18016 0.11524,-0.0191 0.25174,-0.0541 0.30333,-0.0778 0.1668,-0.0768 0.76229,-0.21633 0.796,-0.18658 0.0888,0.0783 -0.0501,0.18583 -0.23994,0.18583 -0.11241,0 -0.26241,0.0265 -0.33332,0.0588 -0.28046,0.1279 -0.334,0.14464 -0.46256,0.14464 -0.0734,0 -0.16159,0.0249 -0.19607,0.0553 -0.0451,0.0398 -0.0735,0.0398 -0.10141,0 z m 3.54267,-0.0595 c 0,-0.12394 0.13472,-0.10643 0.16278,0.0212 0.011,0.0502 -0.0184,0.0848 -0.0721,0.0848 -0.0535,0 -0.0907,-0.0435 -0.0907,-0.10596 z m -1.98179,-0.0196 c 0.0196,-0.0452 0.0604,-0.0749 0.0906,-0.066 0.0864,0.0254 0.0616,0.1136 -0.037,0.13172 -0.0616,0.0113 -0.0782,-0.009 -0.0536,-0.0657 z m 1.61107,0.0297 c -0.0392,-0.056 0.10768,-0.16999 0.15982,-0.12399 0.0209,0.0184 0.0379,0.064 0.0379,0.10128 0,0.0758 -0.14862,0.0928 -0.19775,0.0227 z m -1.30127,-0.0512 c 0,-0.0561 0.14959,-0.11082 0.19458,-0.0711 0.0181,0.016 0.0191,0.0487 0.002,0.0728 -0.0405,0.0578 -0.19681,0.0565 -0.19681,-0.002 z m 0.34593,-0.0309 c 0,-0.0565 0.0673,-0.0763 0.25944,-0.0763 0.19219,0 0.25945,0.0198 0.25945,0.0763 0,0.088 -0.1474,0.10307 -0.2049,0.021 -0.0279,-0.0398 -0.0563,-0.0398 -0.10141,0 -0.0906,0.0799 -0.21258,0.0679 -0.21258,-0.021 z m 0.6342,0 c 0,-0.042 0.0389,-0.0763 0.0865,-0.0763 0.0476,0 0.0865,0.0343 0.0865,0.0763 0,0.042 -0.0389,0.0763 -0.0865,0.0763 -0.0476,0 -0.0865,-0.0343 -0.0865,-0.0763 z m 0.47598,-0.18535 c -0.0417,-0.0368 -0.2883,-0.0613 -0.64645,-0.0642 -0.42205,-0.003 -0.57904,-0.022 -0.57904,-0.0683 0,-0.0706 0.19509,-0.0876 0.72068,-0.0629 0.19026,0.009 0.42376,0.0182 0.5189,0.0205 0.13034,0.003 0.17296,0.0283 0.17296,0.10175 0,0.11776 -0.0946,0.15476 -0.18705,0.0732 z m -1.8597,-0.0889 c 0,-0.0619 0.14802,-0.10716 0.35065,-0.10716 0.11111,0 0.16825,0.0259 0.16825,0.0763 0,0.0565 -0.0673,0.0763 -0.25945,0.0763 -0.1427,0 -0.25945,-0.0204 -0.25945,-0.0454 z m -7.21396,2.14955 c 0.0778,-0.15058 0.054,-0.19819 -0.0769,-0.15388 -0.0913,0.0309 -0.12754,0.28761 -0.0406,0.28761 0.0266,0 0.0795,-0.0602 0.11746,-0.13373 z m 12.58019,-0.43972 c -0.007,-0.0608 -0.0862,-0.049 -0.11098,0.0165 -0.0127,0.0336 0.008,0.0519 0.0461,0.0407 0.038,-0.0112 0.0672,-0.0369 0.0649,-0.0572 z m -0.073,-0.60016 c -0.0114,-0.0301 -0.0453,-0.0547 -0.0754,-0.0547 -0.0301,0 -0.0641,0.0246 -0.0754,0.0547 -0.0114,0.0301 0.0226,0.0547 0.0754,0.0547 0.0529,0 0.0868,-0.0246 0.0754,-0.0547 z m -0.17753,-0.23035 c -0.0192,-0.0169 -0.0689,-0.0187 -0.1105,-0.004 -0.046,0.0162 -0.0323,0.0283 0.0348,0.0307 0.0608,0.002 0.0948,-0.01 0.0757,-0.0267 z m -0.18618,-0.17272 c -0.0196,-0.028 -0.073,-0.0509 -0.11871,-0.0509 -0.0457,0 -0.0831,0.0229 -0.0831,0.0509 0,0.028 0.0534,0.0509 0.11871,0.0509 0.0653,0 0.10268,-0.0229 0.0831,-0.0509 z m -0.20179,-0.5056 c 0,-0.0263 -0.0259,-0.062 -0.0576,-0.0793 -0.0317,-0.0173 -0.0577,0.004 -0.0577,0.0479 0,0.0436 0.0259,0.0793 0.0577,0.0793 0.0317,0 0.0576,-0.0215 0.0576,-0.0479 z m 1.97915,-2.63734 c -0.28696,-0.23024 -0.65308,-0.45221 -0.65308,-0.39593 0,0.0455 0.83203,0.63839 0.89365,0.63675 0.0317,-8.2e-4 -0.0765,-0.10922 -0.24057,-0.24082 z m -1.46763,-0.0561 c -0.0435,-0.0531 -0.13925,-0.16752 -0.21276,-0.2543 l -0.13364,-0.15778 0.45075,-0.004 c 0.56423,-0.005 0.38904,-0.0615 -0.45005,-0.14386 -0.32903,-0.0323 -1.16901,-0.1263 -1.86664,-0.20887 -2.52229,-0.29852 -4.22854,-0.37276 -5.73666,-0.24959 -1.22493,0.10005 -2.16465,0.3084 -2.2354,0.49563 -0.0324,0.0857 0.0933,0.0749 0.47363,-0.0405 0.60589,-0.18389 1.24673,-0.26366 2.34773,-0.29225 l 1.07603,-0.0279 0.15302,0.26637 c 0.18522,0.32245 0.25951,0.3075 0.0957,-0.0192 l -0.11688,-0.2331 0.21296,0.002 c 0.11713,0.001 0.47079,0.0221 0.78592,0.0469 0.49648,0.0391 0.58738,0.0609 0.68106,0.16349 l 0.1081,0.11835 -0.0376,-0.11797 c -0.0375,-0.11758 -0.0362,-0.11786 0.38556,-0.0867 0.71404,0.0528 0.80775,0.0762 0.99094,0.24671 0.15652,0.14573 0.16533,0.13474 0.0653,-0.0814 -0.024,-0.052 0.0916,-0.0545 0.58492,-0.0127 l 0.6149,0.052 0.13361,0.18655 c 0.16848,0.23524 0.29321,0.30892 0.17151,0.10131 -0.0502,-0.0856 -0.0913,-0.17968 -0.0913,-0.20904 0,-0.0677 0.29811,-0.0684 0.69841,-0.002 0.25824,0.0431 0.359,0.0945 0.59814,0.30516 0.30283,0.2668 0.38428,0.31735 0.25276,0.15685 z m -10.88582,-1.69306 c -0.24162,-0.53231 -0.31272,-1.00562 -0.27363,-1.82151 0.0566,-1.18151 0.3638,-1.88065 1.19401,-2.71757 0.33218,-0.33487 0.33974,-0.42799 0.0149,-0.18327 -0.59811,0.45056 -1.11293,1.17757 -1.35391,1.91194 -0.11224,0.34207 -0.13204,0.51708 -0.12913,1.14148 0.003,0.66005 0.0197,0.7802 0.15796,1.14436 0.15076,0.39695 0.48399,0.97337 0.53613,0.92738 0.0144,-0.0126 -0.0515,-0.19392 -0.1463,-0.40281 z m 5.40435,-0.0541 c -0.85084,-0.84408 -1.5116,-1.69933 -2.01383,-2.6066 -0.35944,-0.64932 -0.43012,-0.66587 -0.19402,-0.0454 0.28179,0.74052 0.71245,1.38512 1.43436,2.14688 0.33561,0.35414 0.98665,0.8739 1.09463,0.8739 0.0278,0 -0.11671,-0.16593 -0.32114,-0.36874 z m 3.54721,0.0914 c -0.19114,-0.94159 -0.97154,-2.22545 -1.82499,-3.00232 -0.36196,-0.32947 -0.36756,-0.30898 -0.035,0.12788 0.7341,0.9643 1.46622,2.18573 1.67124,2.78821 0.0824,0.24205 0.14363,0.3505 0.17372,0.30755 0.0256,-0.0365 0.0323,-0.13608 0.015,-0.22132 z m -6.82299,-0.1887 c -0.96696,-1.01297 -1.11131,-1.9739 -0.47244,-3.14505 0.27917,-0.51175 0.27929,-0.51247 0.0459,-0.27973 -0.11219,0.11189 -0.30187,0.37306 -0.42151,0.58037 l -0.21752,0.37694 v 0.66686 c 0,0.65497 0.004,0.67318 0.1961,1.02173 0.14424,0.26103 0.32432,0.4672 0.68105,0.77976 0.26673,0.23368 0.49837,0.41305 0.51477,0.39858 0.0164,-0.0145 -0.13047,-0.19422 -0.32639,-0.39946 z m 7.82009,-0.34773 c -0.0813,-0.9789 -0.62684,-2.11582 -1.34237,-2.79759 -0.17779,-0.16941 -0.33409,-0.29845 -0.34733,-0.28677 -0.0132,0.0117 0.10955,0.2012 0.27286,0.42115 0.72965,0.98271 1.15565,2.01336 1.28997,3.12096 0.0153,0.12588 0.0317,0.25176 0.0365,0.27973 0.005,0.028 0.0342,-0.0407 0.0654,-0.15258 0.0312,-0.1119 0.0424,-0.3751 0.025,-0.5849 z m 1.44236,-0.30516 c 0.0422,-0.71024 -0.0248,-1.06403 -0.29798,-1.57176 -0.23758,-0.44165 -0.79873,-0.9614 -1.28914,-1.19405 l -0.3088,-0.14649 0.51371,0.45166 c 0.96821,0.85124 1.12485,1.18943 1.15148,2.48607 0.0224,1.0923 0.0176,1.05913 0.11426,0.78834 0.0449,-0.12588 0.0973,-0.49208 0.11647,-0.81377 z m -4.208,0.84055 c -0.018,-0.0412 -0.37516,-0.53901 -0.79385,-1.10622 -0.41869,-0.5672 -1.04244,-1.41749 -1.38611,-1.88953 -0.34368,-0.47205 -0.62449,-0.8268 -0.62404,-0.78834 0.001,0.1245 0.54601,1.07393 0.90063,1.57031 0.38364,0.53698 0.94366,1.23342 1.50303,1.86912 0.3567,0.40539 0.4687,0.50181 0.40034,0.34466 z m 1.78951,14.80128 c -0.049,-0.0432 -0.11682,-0.0785 -0.15079,-0.0785 -0.0792,0 -0.0789,-0.002 0.0306,-0.23355 0.17786,-0.3755 -0.003,-0.83452 -0.32895,-0.83452 h -0.17623 l 0.0356,0.31788 c 0.0221,0.19704 0.007,0.41455 -0.0386,0.57218 l -0.0743,0.25431 h -0.34593 c -0.29407,0 -0.34473,-0.0134 -0.33792,-0.089 0.004,-0.049 -0.0302,-0.089 -0.0769,-0.089 -0.0467,0 -0.0761,-0.0172 -0.0653,-0.0381 0.0108,-0.021 0.0913,-0.15845 0.17893,-0.30548 0.23028,-0.38628 0.26279,-0.67121 0.0989,-0.86678 -0.0933,-0.11129 -0.12809,-0.22045 -0.12425,-0.38952 0.003,-0.12918 0.0208,-0.25691 0.0396,-0.28383 0.0205,-0.0292 -0.10316,-0.0489 -0.30727,-0.0489 -0.26006,0 -0.37841,-0.0256 -0.49602,-0.10719 -0.14143,-0.0981 -0.14619,-0.11251 -0.0565,-0.17038 0.0709,-0.0458 0.0884,-0.10532 0.0634,-0.21589 -0.029,-0.12814 -0.007,-0.17052 0.1352,-0.26346 0.10582,-0.069 0.16982,-0.087 0.16982,-0.0478 0,0.0346 0.11026,-0.032 0.24503,-0.14811 0.13477,-0.11609 0.31998,-0.23593 0.41158,-0.26632 0.0916,-0.0304 0.15239,-0.0677 0.13508,-0.083 -0.0422,-0.0372 -0.38301,0.11774 -0.55589,0.25271 -0.12725,0.0994 -0.13562,0.10034 -0.0993,0.0117 0.025,-0.0611 -0.054,-0.0206 -0.21479,0.11013 -0.13993,0.11378 -0.33329,0.24285 -0.42969,0.28683 l -0.17527,0.0799 0.13475,-0.2918 c 0.14594,-0.31603 0.14416,-0.37055 -0.009,-0.2609 -0.0842,0.0605 -0.0823,0.0459 0.013,-0.10014 0.0614,-0.094 0.14407,-0.18231 0.18371,-0.19617 0.11074,-0.0387 0.0855,-0.11611 -0.0288,-0.0882 -0.0555,0.0135 -0.0231,-0.009 0.0721,-0.0502 0.22286,-0.0963 0.51622,-0.0982 0.86565,-0.005 0.25306,0.0672 0.28503,0.0662 0.34885,-0.0108 0.0583,-0.0703 0.0856,-0.0736 0.16003,-0.019 0.35211,0.25779 0.181,1.01802 -0.2931,1.30221 -0.18587,0.11142 -0.19717,0.12861 -0.0845,0.12861 0.12102,0 0.12427,0.008 0.0469,0.11443 -0.091,0.12526 -0.11056,0.22593 -0.0965,0.49589 l 0.009,0.17801 0.0792,-0.15258 0.0792,-0.15258 0.005,0.14321 c 0.005,0.15873 0.0973,0.33997 0.17283,0.33997 0.0268,0 0.077,-0.0988 0.11144,-0.21953 0.0345,-0.12073 0.11598,-0.26208 0.18115,-0.31411 0.0652,-0.052 0.15801,-0.21453 0.20632,-0.36111 0.0907,-0.27518 0.25542,-0.47136 0.25542,-0.30418 0,0.0468 -0.0425,0.15829 -0.0944,0.24782 l -0.0944,0.16277 0.12355,-0.0972 c 0.2083,-0.16383 0.21389,-0.0398 0.007,0.14879 -0.12223,0.11126 -0.1637,0.17785 -0.11137,0.17887 0.0599,0.001 0.0509,0.0242 -0.0319,0.082 -0.10925,0.0761 -0.10405,0.0786 0.0989,0.0473 l 0.2142,-0.0331 -0.0888,0.18736 c -0.0581,0.1227 -0.0684,0.19849 -0.0297,0.21957 0.0325,0.0177 0.0822,0.0874 0.11047,0.15481 0.0472,0.11246 0.0546,0.10497 0.09,-0.0904 0.0333,-0.18362 0.0583,-0.21304 0.18137,-0.21304 0.12566,0 0.14094,-0.0197 0.12761,-0.16485 -0.0109,-0.11841 -0.0472,-0.16976 -0.12903,-0.1823 -0.0626,-0.01 -0.14457,-0.0521 -0.1821,-0.0945 -0.0391,-0.0442 -0.0987,-0.0605 -0.13958,-0.0382 -0.0392,0.0214 -0.0215,-0.0214 0.0394,-0.0951 0.10273,-0.12424 0.4479,-0.23809 0.52246,-0.17231 0.0174,0.0153 -0.0682,0.0766 -0.19007,0.13624 -0.1219,0.0596 -0.1794,0.0974 -0.12777,0.0839 0.0516,-0.0134 0.12164,5e-5 0.15559,0.03 0.0439,0.0387 0.1212,0.008 0.26725,-0.10475 0.27546,-0.21336 0.49728,-0.30926 0.79997,-0.34585 0.31457,-0.038 0.64196,0.087 0.76143,0.29081 0.10194,0.17389 0.10817,0.24083 0.0148,0.15842 -0.11435,-0.10087 -0.17043,-0.0689 -0.0937,0.0534 0.0438,0.0698 0.0727,0.31891 0.0741,0.63821 0.002,0.50661 -0.001,0.52017 -0.0986,0.41396 -0.0998,-0.10864 -0.1009,-0.10754 -0.1009,0.10435 0,0.17574 0.0352,0.24519 0.19603,0.38709 0.1988,0.17538 0.15047,0.23095 -0.0989,0.11374 -0.11383,-0.0535 -0.11833,-0.0511 -0.0468,0.0254 0.0989,0.10572 0.0509,0.10709 -0.17302,0.005 -0.0977,-0.0446 -0.21107,-0.15659 -0.25735,-0.2543 -0.10858,-0.22924 -0.1623,-0.22204 -0.12018,0.0161 0.03,0.16973 0.025,0.1805 -0.0453,0.0978 -0.0435,-0.0511 -0.0971,-0.20855 -0.1191,-0.34985 -0.0273,-0.17535 -0.056,-0.23465 -0.0904,-0.18679 -0.0321,0.0447 -0.0507,-0.0354 -0.0512,-0.22131 -0.002,-0.514 -0.24505,-0.84263 -0.56898,-0.7679 -0.0939,0.0217 -0.11196,0.056 -0.0872,0.1654 0.0262,0.11545 -0.0384,0.30444 -0.19691,0.57605 -0.0122,0.021 0.0182,0.0381 0.0675,0.0381 0.16797,0 0.29103,0.30271 0.29285,0.7204 9.1e-4,0.21438 -0.0113,0.40027 -0.0271,0.41308 -0.0159,0.0128 -0.14907,0.0387 -0.29604,0.0575 -0.20299,0.026 -0.2886,0.0153 -0.35622,-0.0443 z m -1.63836,-2.52097 c -0.0335,-0.22022 0.0873,-0.40426 0.26722,-0.40729 0.0791,-10e-4 0.0779,-0.009 -0.008,-0.053 -0.12037,-0.0619 -0.30105,0.01 -0.38861,0.1541 -0.08,0.13183 -0.0745,0.37506 0.0102,0.44975 0.11976,0.10564 0.15145,0.0675 0.11936,-0.14355 z m 0.2727,-0.0213 c 0,-0.0123 -0.0259,-0.0366 -0.0577,-0.0539 -0.0317,-0.0173 -0.0576,-0.007 -0.0576,0.0224 0,0.0296 0.0259,0.0539 0.0576,0.0539 0.0317,0 0.0577,-0.0101 0.0577,-0.0224 z m 0.19654,-0.12266 c 0.0167,-0.0238 -0.006,-0.0868 -0.0504,-0.13987 -0.0623,-0.0744 -0.0966,-0.0827 -0.14995,-0.0363 -0.038,0.0331 -0.0536,0.096 -0.0345,0.13987 0.0371,0.0852 0.18458,0.10807 0.23483,0.0363 z m 0.23486,1.14511 c -0.0242,-0.0514 -0.0153,-0.17613 0.0198,-0.27715 0.0799,-0.22963 0.0561,-0.25281 -0.10607,-0.10319 l -0.12766,0.1178 0.0431,-0.12715 c 0.0237,-0.0699 0.0624,-0.17293 0.0861,-0.22888 0.0237,-0.0559 0.0477,-0.12461 0.0534,-0.15258 0.006,-0.028 0.0591,-0.0966 0.11856,-0.15258 0.0595,-0.0559 0.15986,-0.20471 0.22305,-0.33059 l 0.1149,-0.22887 0.004,0.38145 c 0.003,0.30965 -0.0248,0.43411 -0.14665,0.66118 -0.0826,0.15386 -0.16994,0.33696 -0.19413,0.40689 -0.0392,0.11351 -0.0487,0.11712 -0.088,0.0337 z m 0.77935,-0.33883 c 0,-0.028 0.0405,-0.0509 0.0899,-0.0509 0.0494,0 0.0739,0.0229 0.0543,0.0509 -0.0196,0.028 -0.06,0.0509 -0.0899,0.0509 -0.0298,0 -0.0542,-0.0229 -0.0542,-0.0509 z m 0.19672,-0.4724 c -0.0671,-0.0646 0.1902,-0.27761 0.51491,-0.42636 0.27962,-0.1281 0.24602,-0.0261 -0.0786,0.23851 -0.3367,0.2745 -0.34339,0.27738 -0.43633,0.18785 z m -0.044,-0.21279 c -0.0186,-0.0427 -0.0735,-0.0777 -0.1221,-0.0777 -0.11583,0 -0.11118,-0.0426 0.0264,-0.24159 0.13254,-0.19176 0.19851,-0.21536 0.14218,-0.0509 -0.0325,0.0948 -5.4e-4,0.0817 0.18593,-0.0763 0.39063,-0.33096 0.4136,-0.24275 0.0541,0.20765 -0.17954,0.22492 -0.26244,0.29403 -0.28647,0.23881 z m 0.45374,-0.91887 c -0.91217,-0.30658 -1.16297,-1.4228 -0.45321,-2.01705 0.33986,-0.28455 0.97871,-0.38976 1.40575,-0.2315 0.26001,0.0964 0.65507,0.4785 0.74604,0.72164 0.11446,0.30597 0.0516,0.74312 -0.14788,1.02769 -0.32527,0.46411 -1.00452,0.68278 -1.5507,0.49922 z m 0.81891,-0.60928 c 0.16562,-0.2093 0.28619,-0.38055 0.26794,-0.38055 -0.0182,0 -0.16023,0.0629 -0.31553,0.13987 l -0.28236,0.13987 -0.28235,-0.13987 c -0.1553,-0.0769 -0.29824,-0.13987 -0.31764,-0.13987 -0.0194,0 0.1,0.17166 0.26534,0.38146 0.16534,0.20979 0.31476,0.38104 0.33205,0.38055 0.0173,-5.5e-4 0.16693,-0.17216 0.33255,-0.38146 z m -0.0498,-0.63273 c 0.13823,0.0548 0.27257,0.0996 0.29852,0.0996 0.0494,0 -0.5284,-0.91077 -0.57868,-0.91222 -0.0297,-7.3e-4 -0.6342,0.88529 -0.6342,0.92975 0,0.0137 0.13621,0.0945 0.30269,0.17948 l 0.30269,0.15453 0.0288,-0.27537 0.0288,-0.27538 z m -4.20684,0.33148 c -0.25909,-0.12914 -0.45341,-0.48618 -0.26461,-0.48618 0.0413,0 0.16319,0.0801 0.27076,0.17801 0.12304,0.11198 0.2502,0.178 0.34283,0.17797 0.34815,-1e-4 1.35452,-0.52962 1.77947,-0.9363 0.23461,-0.22453 0.63979,-0.87673 0.64969,-1.04578 0.002,-0.0427 0.0165,-0.0521 0.0311,-0.0207 0.036,0.0772 -0.22219,0.67197 -0.39753,0.91563 -0.078,0.10844 -0.28151,0.31269 -0.45216,0.45389 -0.78252,0.64745 -1.57385,0.95577 -1.95959,0.7635 z m 1.33842,-1.08379 c 0.0429,-0.0489 0.22516,-0.23052 0.40505,-0.40348 0.50396,-0.48452 0.70427,-1.12395 0.49059,-1.56597 l -0.0731,-0.15119 -0.58734,-0.003 c -0.32304,-0.002 -0.58735,0.0118 -0.58735,0.0298 0,0.0179 0.0813,0.12158 0.18066,0.23033 0.19758,0.21625 0.41538,0.61214 0.47951,0.87162 0.0604,0.24434 -0.0357,0.197 -0.19038,-0.0938 -0.0746,-0.1402 -0.27806,-0.39065 -0.45219,-0.55657 -0.36126,-0.34421 -0.44152,-0.58216 -0.28592,-0.84761 0.3006,-0.51278 1.34798,-0.35093 1.70654,0.2637 0.12229,0.20963 0.14715,0.32179 0.14643,0.66073 -0.001,0.46584 -0.11457,0.74304 -0.43764,1.068 -0.34335,0.34537 -1.048,0.78623 -0.79487,0.49731 z m -1.44758,-0.49807 c 0,-0.0432 0.11184,-0.1862 0.24853,-0.31788 0.13669,-0.13167 0.30475,-0.30479 0.37348,-0.38471 0.14049,-0.16335 0.12316,-0.21959 -0.16911,-0.54863 -0.19175,-0.21587 -0.20723,-0.29784 -0.0563,-0.29784 0.17308,0 0.8961,0.84278 0.86099,1.0036 -0.0288,0.13203 -0.88585,0.62393 -1.08706,0.62393 -0.11529,0 -0.17057,-0.0254 -0.17057,-0.0785 z m -1.34685,-0.87231 c -0.0649,-0.0573 -0.0395,-0.11729 0.0496,-0.11729 0.0476,0 0.0865,0.0216 0.0865,0.0479 0,0.0641 -0.09,0.11007 -0.1361,0.0694 z m 0.19375,-0.34616 c 0,-0.0466 0.0279,-0.0766 0.062,-0.0665 0.0341,0.01 0.062,0.04 0.062,0.0665 0,0.0266 -0.0279,0.0565 -0.062,0.0665 -0.0341,0.01 -0.062,-0.0199 -0.062,-0.0665 z m -0.36671,-0.26416 c -0.0649,-0.0573 -0.0395,-0.1173 0.0496,-0.1173 0.0476,0 0.0865,0.0216 0.0865,0.0479 0,0.0641 -0.09,0.11007 -0.13609,0.0694 z m 0.51085,-0.0156 c -0.042,-0.06 0.0125,-0.15258 0.0899,-0.15258 0.0298,0 0.0542,0.0458 0.0542,0.10172 0,0.10727 -0.0839,0.13686 -0.14414,0.0509 z m -0.33512,-0.28715 c -0.0752,-0.0663 -0.0393,-0.11974 0.0805,-0.11974 0.0671,0 0.11004,0.0267 0.0973,0.0604 -0.0281,0.0743 -0.12435,0.10646 -0.17777,0.0593 z m 0.53691,-0.0943 c 0,-0.042 0.0259,-0.0763 0.0577,-0.0763 0.0317,0 0.0576,0.0343 0.0576,0.0763 0,0.042 -0.0259,0.0763 -0.0576,0.0763 -0.0317,0 -0.0577,-0.0343 -0.0577,-0.0763 z m -1.08286,-0.0333 c 0.0299,-0.0792 0.15891,-0.0931 0.16343,-0.0176 0.002,0.028 -0.0402,0.0588 -0.0931,0.0684 -0.0601,0.011 -0.0865,-0.008 -0.0703,-0.0509 z m 0.75135,-0.20829 c 0.0132,-0.035 0.0586,-0.0636 0.10089,-0.0636 0.0423,0 0.0877,0.0286 0.1009,0.0636 0.0143,0.0378 -0.0266,0.0636 -0.1009,0.0636 -0.0743,0 -0.11518,-0.0258 -0.10089,-0.0636 z m -0.53331,-0.0636 c 0,-0.042 0.0389,-0.0763 0.0865,-0.0763 0.0476,0 0.0865,0.0343 0.0865,0.0763 0,0.042 -0.0389,0.0763 -0.0865,0.0763 -0.0476,0 -0.0865,-0.0343 -0.0865,-0.0763 z m 1.06661,0.0254 c 0.0196,-0.028 0.0616,-0.0509 0.0933,-0.0509 0.0317,0 0.0416,0.0229 0.022,0.0509 -0.0196,0.028 -0.0616,0.0509 -0.0933,0.0509 -0.0317,0 -0.0416,-0.0229 -0.022,-0.0509 z m -1.57229,-0.21298 c 0.0356,-0.0943 0.15975,-0.10994 0.15975,-0.0201 0,0.0443 -0.0411,0.0805 -0.0913,0.0805 -0.0502,0 -0.081,-0.0272 -0.0685,-0.0604 z m 1.31285,-0.0129 c 0,-0.0403 0.0259,-0.0874 0.0577,-0.10472 0.0317,-0.0173 0.0577,0.0157 0.0577,0.0733 0,0.0576 -0.026,0.10472 -0.0577,0.10472 -0.0317,0 -0.0577,-0.033 -0.0577,-0.0733 z m -0.57655,-0.0539 c 0,-0.042 0.0389,-0.0763 0.0865,-0.0763 0.0476,0 0.0865,0.0343 0.0865,0.0763 0,0.042 -0.0389,0.0763 -0.0865,0.0763 -0.0476,0 -0.0865,-0.0343 -0.0865,-0.0763 z m 1.09544,0.0254 c 0,-0.028 0.0389,-0.0509 0.0865,-0.0509 0.0476,0 0.0865,0.0229 0.0865,0.0509 0,0.028 -0.0389,0.0509 -0.0865,0.0509 -0.0476,0 -0.0865,-0.0229 -0.0865,-0.0509 z m -0.24984,-0.13562 c -0.0702,-0.0619 -0.0397,-0.16954 0.0481,-0.16954 0.048,0 0.0865,0.0452 0.0865,0.10172 0,0.10133 -0.0614,0.1323 -0.13453,0.0678 z m -0.55733,-0.14411 c 0,-0.0466 0.0279,-0.0766 0.062,-0.0665 0.0341,0.01 0.062,0.04 0.062,0.0665 0,0.0266 -0.0279,0.0565 -0.062,0.0665 -0.0341,0.01 -0.062,-0.0199 -0.062,-0.0665 z m 1.1531,0.0254 c 0,-0.028 0.026,-0.0509 0.0577,-0.0509 0.0317,0 0.0577,0.0229 0.0577,0.0509 0,0.028 -0.026,0.0509 -0.0577,0.0509 -0.0317,0 -0.0577,-0.0229 -0.0577,-0.0509 z m 0.34593,-0.12715 c 0,-0.042 0.0389,-0.0763 0.0865,-0.0763 0.0476,0 0.0865,0.0343 0.0865,0.0763 0,0.042 -0.0389,0.0763 -0.0865,0.0763 -0.0476,0 -0.0865,-0.0343 -0.0865,-0.0763 z m -0.65342,-0.008 c -0.0663,-0.0585 -0.042,-0.11867 0.048,-0.11867 0.0476,0 0.0865,0.0343 0.0865,0.0763 0,0.0794 -0.0682,0.1009 -0.13453,0.0424 z m 1.05701,-0.0381 c 0,-0.0443 0.0411,-0.0805 0.0913,-0.0805 0.10182,0 0.0841,0.10949 -0.0228,0.14092 -0.0377,0.0111 -0.0685,-0.0161 -0.0685,-0.0604 z m -1.64226,-0.0284 c -0.0466,-0.0665 0.0861,-0.12289 0.15213,-0.0647 0.0369,0.0326 0.0258,0.0602 -0.032,0.0798 -0.0487,0.0165 -0.10274,0.01 -0.12012,-0.0152 z"
       id="path902"
       inkscape:export-filename="/home/shell/bitmap.png"
       inkscape:export-xdpi="96"
       inkscape:export-ydpi="96" />
    <path
       style="fill:#ffffff;stroke-width:0.480169"
       d="m 455.88881,121.9 c -0.0777,-0.12606 -0.0937,-0.51301 -0.0401,-0.97174 0.049,-0.41925 0.0375,-0.82812 -0.0256,-0.90861 -0.19997,-0.25508 -0.72244,-0.30886 -1.17274,-0.12071 -0.51095,0.21349 -0.66981,0.12875 -0.37315,-0.19905 0.19268,-0.21291 0.19304,-0.23264 0.004,-0.23264 -0.14067,0 -0.18032,-0.0676 -0.12468,-0.21262 0.0629,-0.16393 0.0305,-0.19303 -0.14142,-0.12705 -0.12266,0.0471 -0.27848,0.0856 -0.34627,0.0856 -0.0678,0 -0.18912,0.1858 -0.2696,0.4129 l -0.14633,0.41289 -0.13291,-0.75126 -0.13291,-0.75127 -0.67608,-0.0337 c -0.73696,-0.0367 -1.16606,0.22196 -1.16606,0.7029 0,0.80388 -0.76942,-0.0185 -1.14009,-1.21862 -0.14157,-0.45834 -0.2574,-1.14975 -0.2574,-1.53647 0,-0.5171 -0.0575,-0.74519 -0.21753,-0.86218 -0.18392,-0.13448 -0.19133,-0.19063 -0.048,-0.36337 0.25563,-0.30802 0.0134,-0.24545 -0.2571,0.0664 -0.19232,0.22175 -0.32343,0.25654 -0.72489,0.19234 -0.44218,-0.0707 -0.50763,-0.0444 -0.66942,0.26923 -0.27593,0.53486 -1.04869,1.20669 -1.99166,1.73153 -1.31772,0.73343 -1.44231,0.73102 -1.76559,-0.0341 l -0.27013,-0.63938 0.30422,-0.19933 c 0.18137,-0.11884 0.30421,-0.32273 0.30421,-0.50494 0,-0.30483 -0.29356,-0.70488 -0.51725,-0.70488 -0.17969,0 -0.14084,0.20399 0.0726,0.38113 0.45627,0.37867 0.0694,0.71262 -0.56812,0.49039 -0.37502,-0.13074 -0.38471,-0.15491 -0.38471,-0.95962 0,-0.63093 0.0619,-0.91249 0.26274,-1.1945 0.30634,-0.43021 0.74623,-0.48818 0.84478,-0.11133 0.0422,0.16144 0.14451,0.23674 0.27395,0.20166 0.11362,-0.0308 0.42097,-0.0922 0.683,-0.13636 0.26203,-0.0442 0.47641,-0.1395 0.47641,-0.21176 0,-0.0859 0.57036,-0.11688 1.6467,-0.0895 1.45219,0.0369 1.66559,0.0156 1.80666,-0.18048 0.088,-0.12228 0.27599,-0.22145 0.41778,-0.22038 0.21691,0.002 0.22758,0.0233 0.0672,0.13672 -0.1434,0.10142 -0.15126,0.15072 -0.0318,0.19921 0.0873,0.0354 0.15881,0.13931 0.15881,0.23082 0,0.25316 0.37678,0.34312 0.58114,0.13876 0.2077,-0.2077 0.24308,-0.3796 0.0541,-0.2628 -0.18915,0.1169 -0.15355,-0.0552 0.0545,-0.26316 0.20595,-0.20595 0.63799,-0.24981 0.51597,-0.0524 -0.0439,0.071 -0.13302,0.0962 -0.19807,0.056 -0.065,-0.0402 -0.11826,-0.009 -0.11826,0.07 0,0.17288 0.52693,0.0326 0.66504,-0.17699 0.0673,-0.10215 0.0939,-0.10016 0.0953,0.007 10e-4,0.0959 0.20509,0.1381 0.57364,0.11864 0.31444,-0.0166 0.5717,0.0226 0.5717,0.0871 0,0.0645 0.0858,0.0844 0.19057,0.0442 0.10481,-0.0402 0.19056,-0.0177 0.19056,0.0499 0,0.0677 0.0662,0.12305 0.1471,0.12305 0.0809,0 0.60972,0.40978 1.17516,0.91062 1.41887,1.25677 1.69153,1.54552 1.63098,1.72718 -0.0288,0.0864 0.01,0.15718 0.0852,0.15718 0.0757,0 0.13763,0.13214 0.13763,0.29365 0,0.16151 0.11657,0.41878 0.25904,0.5717 0.14247,0.15293 0.19763,0.27805 0.12257,0.27805 -0.0888,0 -0.0966,0.0777 -0.0222,0.22232 0.0628,0.12228 0.15112,0.82261 0.19618,1.5563 0.0451,0.73368 0.11403,1.47744 0.15328,1.6528 0.0559,0.2498 -0.008,0.3777 -0.29623,0.59061 -0.33485,0.24756 -0.37908,0.25311 -0.49677,0.0623 z m -0.67559,-3.13281 c 0.45362,-0.23458 0.63268,-0.54743 0.63268,-1.10546 0,-0.816 -0.72166,-1.35094 -1.60013,-1.18614 -0.88505,0.16604 -1.34949,1.08455 -0.93756,1.85423 0.30457,0.56911 1.2365,0.78307 1.90501,0.43737 z m -2.92832,-1.30705 c 0.39708,-0.26869 0.81822,-0.68807 0.9825,-0.97843 0.32986,-0.58301 0.40183,-1.04549 0.1008,-0.64777 -0.16434,0.21713 -0.17507,0.17613 -0.10614,-0.40581 0.0711,-0.60036 0.0485,-0.67553 -0.31155,-1.03556 -0.6334,-0.63341 -1.67821,-0.51076 -1.67821,0.19699 0,0.21776 -0.0567,0.26548 -0.25409,0.21386 -0.29903,-0.0782 -0.33536,0.11872 -0.0635,0.34433 0.27014,0.22419 0.23754,0.41976 -0.12704,0.76226 -0.17469,0.16411 -0.31761,0.34559 -0.31761,0.40328 0,0.33885 1.39243,-0.22996 1.40135,-0.57244 0.002,-0.0816 0.0621,-0.0484 0.13336,0.0739 0.0712,0.12228 0.18767,0.22233 0.25878,0.22233 0.17077,0 0.0183,-0.47732 -0.29428,-0.92107 l -0.24607,-0.34938 h 0.51441 c 0.43744,0 0.52588,0.0458 0.59115,0.30578 0.0917,0.36555 -0.0925,0.75642 -0.6184,1.31213 -0.56744,0.59958 -0.32694,0.73018 0.38769,0.21053 0.15935,-0.11587 0.28585,-0.14747 0.28585,-0.0714 0,0.17447 -1.02624,0.88329 -1.53625,1.06108 -0.29348,0.10231 -0.46582,0.0953 -0.69706,-0.0285 -0.40401,-0.21622 -0.53772,-0.065 -0.23668,0.26761 0.32807,0.36251 0.93632,0.24169 1.83101,-0.36369 z m -2.92711,-2.84119 c 0.15323,-0.18923 0.25085,-0.22876 0.31371,-0.12705 0.0502,0.0812 0.0307,0.14767 -0.0433,0.14767 -0.074,0 -0.13455,0.0572 -0.13455,0.12704 0,0.20055 0.21888,0.14796 0.30366,-0.073 0.0422,-0.11 -0.011,-0.28776 -0.11827,-0.39502 -0.17532,-0.17532 -0.22018,-0.16599 -0.44429,0.0924 -0.24525,0.28278 -0.32151,0.50263 -0.17435,0.50263 0.0412,0 0.17502,-0.12362 0.29736,-0.27471 z m -0.28951,-0.43174 c 0.17892,-0.17892 0.28865,-0.36196 0.24384,-0.40677 -0.0767,-0.0767 -0.70775,0.51444 -0.70775,0.66302 0,0.1415 0.14779,0.0599 0.46391,-0.25625 z m -0.52743,-0.18286 c 0.0432,-0.0699 0.018,-0.12705 -0.056,-0.12705 -0.074,0 -0.13454,0.0572 -0.13454,0.12705 0,0.0699 0.0252,0.12704 0.056,0.12704 0.0308,0 0.0914,-0.0572 0.13454,-0.12704 z"
       id="path1840" />
    <path
       style="fill:#ffffff;stroke-width:0.480169"
       d="m 449.56213,123.7637 c -0.26137,-0.88012 -0.24759,-1.05582 0.0951,-1.21194 0.1598,-0.0728 0.54,-0.45572 0.84489,-0.85092 0.43858,-0.56848 0.56705,-0.85075 0.61518,-1.35167 0.0335,-0.34822 0.12033,-0.6699 0.19305,-0.71484 0.0838,-0.0518 0.0995,0.004 0.0428,0.15129 -0.10071,0.26245 0.0969,0.43895 0.49492,0.44195 0.19563,0.001 0.29902,0.14049 0.4271,0.57426 0.14916,0.50518 0.14396,0.61051 -0.0443,0.89782 -0.26731,0.40796 -0.0817,0.68962 0.45451,0.68962 0.34858,0 0.36557,-0.0266 0.36557,-0.5717 0,-0.56061 0.13841,-0.72801 0.34139,-0.41289 0.0563,0.0873 0.10252,0.33031 0.10278,0.53993 4.8e-4,0.33702 0.0483,0.38574 0.41338,0.42095 0.40883,0.0394 0.41289,0.0344 0.41289,-0.51453 0,-0.30489 -0.0553,-0.60964 -0.12288,-0.67723 -0.16458,-0.16458 -0.0179,-0.6902 0.19267,-0.6902 0.0919,0 0.20162,0.12864 0.24371,0.28585 0.30556,1.14127 0.3408,1.19845 0.81222,1.31775 l 0.46234,0.11701 -0.84695,0.47867 c -0.46582,0.26326 -1.3207,0.65156 -1.89973,0.86288 -0.97655,0.3564 -2.89639,0.87327 -3.25124,0.87533 -0.0846,4.9e-4 -0.24185,-0.29534 -0.34937,-0.65739 z"
       id="path1879" />
    <path
       style="fill:#ffffff;stroke-width:0.120042"
       d="m 453.67297,121.1312 c -0.001,-0.0194 -0.0366,-0.0851 -0.0779,-0.14609 l -0.0752,-0.11083 0.0734,-0.1803 0.0734,-0.18031 -0.16489,0.0218 c -0.15692,0.0207 -0.16259,0.019 -0.11726,-0.0361 0.0376,-0.0456 0.0389,-0.0608 0.007,-0.0717 -0.0265,-0.009 0.0102,-0.0687 0.10322,-0.16816 0.18487,-0.19765 0.20031,-0.32612 0.0244,-0.20289 -0.0809,0.0567 -0.0878,0.0323 -0.0229,-0.0812 0.0608,-0.10633 0.0614,-0.25409 10e-4,-0.25409 -0.0256,0 -0.0625,0.0298 -0.082,0.0662 -0.0459,0.0858 -0.071,0.0597 -0.0443,-0.0464 0.0177,-0.0706 0.0333,-0.0799 0.10477,-0.063 0.0462,0.0109 0.10922,0.0419 0.14009,0.0687 0.0513,0.0446 0.0646,0.0408 0.15354,-0.044 0.0536,-0.051 0.14908,-0.16286 0.21221,-0.24853 l 0.11478,-0.15577 0.0281,0.0843 c 0.0188,0.0563 0.051,0.0845 0.0969,0.085 0.0437,4.3e-4 -0.003,0.0367 -0.12901,0.0995 -0.24256,0.12123 -0.46234,0.31567 -0.43559,0.38537 0.0487,0.12697 0.1475,0.0943 0.4349,-0.14406 0.16026,-0.13288 0.19147,-0.13316 0.0874,-7.9e-4 -0.0349,0.0444 -0.0635,0.10741 -0.0635,0.13999 0,0.0402 -0.023,0.0593 -0.0715,0.0595 -0.10877,4.8e-4 -0.38991,0.14222 -0.44935,0.22656 -0.0506,0.0718 -0.0499,0.0753 0.0186,0.0859 0.0393,0.006 0.10591,0.0382 0.14815,0.0715 0.0422,0.0332 0.10296,0.0604 0.13492,0.0604 0.0721,0 0.12388,0.092 0.12388,0.22024 0,0.0849 -0.0112,0.0974 -0.0873,0.0979 -0.13286,7.4e-4 -0.17044,0.0402 -0.21538,0.226 -0.0227,0.0938 -0.0425,0.15466 -0.0439,0.13526 z m -0.0486,-0.68212 c 0.0117,-0.019 0.008,-0.048 -0.009,-0.0646 -0.0399,-0.0399 -0.13594,-10e-4 -0.13594,0.0548 0,0.0521 0.11369,0.0598 0.14463,0.01 z"
       id="path1957" />
    <path
       style="fill:#ffffff;stroke-width:0.120042"
       d="m 453.95611,120.25837 c -0.0348,-0.0246 -0.0372,-0.0379 -0.009,-0.0494 0.0213,-0.009 0.0862,-0.048 0.14427,-0.0874 0.0866,-0.0588 0.33826,-0.14605 0.42118,-0.14605 0.0111,0 -0.0846,0.0714 -0.21257,0.15858 -0.24793,0.16894 -0.26972,0.17682 -0.3439,0.12436 z"
       id="path1996" />
    <path
       style="fill:#ffffff;stroke-width:0.120042"
       d="m 455.8198,120.65829 c -0.0144,-0.10481 -0.0394,-0.23219 -0.0557,-0.28306 -0.0356,-0.11119 -0.0137,-0.14373 0.0523,-0.0777 0.0369,0.0369 0.0461,0.1076 0.0389,0.29984 l -0.009,0.25152 z"
       id="path2035" />
    <path
       style="fill:#ffffff;stroke-width:0.120042"
       d="m 455.73839,121.79609 c -0.0804,-0.0976 -0.0989,-0.14864 -0.0989,-0.27309 v -0.15305 l 0.0741,0.0559 c 0.055,0.0415 0.0832,0.10909 0.10951,0.26253 0.0195,0.11364 0.0306,0.21137 0.0248,0.21718 -0.006,0.006 -0.0551,-0.0434 -0.10951,-0.10947 z"
       id="path2074" />
    <path
       style="fill:#ffffff;stroke-width:0.120042"
       d="m 455.26921,122.01985 c -0.12813,-0.0454 -0.13235,-0.0514 -0.14292,-0.20396 -0.006,-0.0864 -0.004,-0.15716 0.005,-0.15715 0.009,1e-5 0.055,0.0643 0.10243,0.14294 0.0475,0.0786 0.13313,0.17144 0.19033,0.20632 0.12715,0.0775 0.0474,0.0836 -0.15506,0.0119 z"
       id="path2113" />
    <path
       style="fill:#ffffff;stroke-width:0.120042"
       d="m 455.92968,121.9271 c -0.0817,-0.10385 -0.11357,-0.36094 -0.088,-0.70941 0.081,-1.10313 0.0703,-1.19157 -0.16064,-1.32688 -0.11932,-0.0699 -0.19683,-0.0887 -0.41265,-0.10005 -0.24071,-0.0126 -0.30124,-0.003 -0.64297,0.10583 -0.5201,0.16514 -0.59026,0.12627 -0.33583,-0.18608 0.0786,-0.0965 0.14293,-0.19071 0.14293,-0.20936 0,-0.0186 -0.0401,-0.0339 -0.0892,-0.0339 -0.0491,0 -0.11628,-0.0198 -0.14937,-0.044 -0.0535,-0.0391 -0.056,-0.0576 -0.0227,-0.16594 0.0518,-0.16886 0.0145,-0.19471 -0.19086,-0.13211 -0.0919,0.028 -0.21342,0.0604 -0.26995,0.0719 -0.13224,0.0269 -0.21306,0.1416 -0.34424,0.48847 -0.057,0.15069 -0.11082,0.25254 -0.11962,0.22634 -0.009,-0.0262 -0.0682,-0.34761 -0.13189,-0.71424 -0.0637,-0.36663 -0.12011,-0.67082 -0.12527,-0.67598 -0.005,-0.005 -0.26499,-0.0125 -0.57738,-0.0163 -0.47565,-0.006 -0.59885,0.003 -0.75777,0.0517 -0.32164,0.0992 -0.52412,0.36082 -0.52467,0.67784 -10e-4,0.58703 -0.54625,0.12847 -0.94012,-0.7907 -0.24253,-0.566 -0.38093,-1.22123 -0.42508,-2.01247 -0.0326,-0.58458 -0.0703,-0.71381 -0.2568,-0.88126 -0.13903,-0.12481 -0.13851,-0.13796 0.0146,-0.36369 0.0506,-0.0746 0.0832,-0.14441 0.0725,-0.15514 -0.0421,-0.0421 -0.20881,0.0642 -0.38171,0.24326 -0.21974,0.22757 -0.28783,0.24542 -0.73137,0.19165 -0.45776,-0.0555 -0.44204,-0.0642 -0.75094,0.41465 -0.40042,0.62068 -1.28867,1.30228 -2.46216,1.88935 -0.61801,0.30918 -0.82677,0.31341 -1.01026,0.0205 -0.0605,-0.0967 -0.43385,-0.93274 -0.43385,-0.97168 0,-0.006 0.0936,-0.0717 0.20802,-0.14574 0.27564,-0.17826 0.37865,-0.33357 0.37801,-0.56993 -8.7e-4,-0.32108 -0.27518,-0.70186 -0.5056,-0.70186 -0.15215,0 -0.17564,0.0919 -0.0659,0.25778 0.046,0.0696 0.10418,0.13434 0.12922,0.14395 0.0667,0.0256 0.17384,0.2128 0.17384,0.30378 0,0.14666 -0.1042,0.19968 -0.3925,0.19968 -0.22382,0 -0.28424,-0.0128 -0.44917,-0.0953 -0.15422,-0.0771 -0.1978,-0.11648 -0.22848,-0.20644 -0.0478,-0.14013 -0.0531,-1.02072 -0.008,-1.30221 0.0808,-0.50246 0.42957,-0.92212 0.76515,-0.92058 0.1463,6.7e-4 0.18731,0.0337 0.28011,0.22597 0.0442,0.0915 0.1044,0.18097 0.13379,0.19874 0.0386,0.0233 0.19597,0.004 0.5663,-0.0701 0.48806,-0.0974 0.74185,-0.18395 0.7678,-0.26181 0.0254,-0.076 0.37871,-0.0948 1.69328,-0.0902 1.48745,0.005 1.57074,-0.003 1.72098,-0.16408 0.16717,-0.17962 0.29797,-0.23577 0.51817,-0.22244 l 0.0794,0.005 -0.10323,0.0884 c -0.12099,0.10357 -0.1312,0.17776 -0.0318,0.23073 0.0975,0.0519 0.14865,0.12457 0.14986,0.21276 5.5e-4,0.0407 0.0445,0.11744 0.0978,0.17065 0.088,0.088 0.1111,0.0954 0.25557,0.0815 0.17105,-0.0164 0.30858,-0.11564 0.39821,-0.28726 0.0636,-0.1217 0.0292,-0.16058 -0.0883,-0.0998 -0.12021,0.0622 -0.14009,0.0445 -0.08,-0.071 0.0851,-0.16367 0.2987,-0.31436 0.46589,-0.32871 0.19776,-0.017 0.23589,0.0139 0.13804,0.11172 -0.038,0.038 -0.082,0.047 -0.15922,0.0325 -0.0804,-0.0151 -0.11138,-0.008 -0.12571,0.0296 -0.0262,0.0683 0.0441,0.14404 0.13371,0.14404 0.12941,0 0.41094,-0.12365 0.50495,-0.22178 l 0.0906,-0.0945 0.0346,0.0695 c 0.0483,0.0969 0.13319,0.11305 0.61132,0.11667 0.39631,0.003 0.42332,0.007 0.51165,0.0816 0.081,0.0681 0.10741,0.0744 0.20073,0.0476 0.14777,-0.0424 0.15324,-0.041 0.18647,0.0464 0.0181,0.0475 0.0851,0.10184 0.17411,0.14123 0.23122,0.10228 0.72675,0.50354 1.66887,1.35137 0.58542,0.52684 0.96188,0.90053 1.04566,1.03795 0.0361,0.0593 0.0658,0.16177 0.0658,0.22771 0,0.0973 0.0145,0.12535 0.0764,0.1489 0.10035,0.0382 0.11206,0.061 0.149,0.29034 0.0364,0.22578 0.13579,0.43687 0.29623,0.6289 0.1206,0.14436 0.14433,0.22534 0.066,0.22534 -0.0598,0 -0.0598,0.0736 0,0.24476 0.067,0.19229 0.13078,0.72647 0.2059,1.72442 0.0362,0.48039 0.0882,1.05372 0.11568,1.27408 0.0455,0.36492 0.0455,0.4093 -4.8e-4,0.4977 -0.0784,0.15161 -0.47436,0.4511 -0.59675,0.45138 -0.0293,4e-5 -0.082,-0.0363 -0.11702,-0.0809 z m -1.19542,-3.00129 c 0.24706,-0.0356 0.56041,-0.16881 0.74989,-0.31888 0.39504,-0.31288 0.49706,-1.07038 0.21011,-1.56003 -0.0983,-0.16772 -0.31979,-0.37824 -0.48854,-0.46434 -0.42518,-0.2169 -1.05413,-0.17839 -1.47267,0.0902 -0.5196,0.33343 -0.72517,1.01509 -0.47599,1.57841 0.1446,0.32688 0.55716,0.61222 0.97295,0.67292 0.25771,0.0376 0.25498,0.0376 0.50425,0.002 z m -3.51572,-0.92346 c 0.22104,-0.0529 0.68921,-0.2803 1.00451,-0.48794 0.33381,-0.21983 0.82687,-0.68287 0.99191,-0.93151 0.13849,-0.20865 0.31429,-0.60351 0.34553,-0.77611 0.029,-0.1601 -0.0248,-0.15616 -0.1987,0.0145 -0.0776,0.0762 -0.13574,0.11374 -0.13517,0.0873 5.7e-4,-0.0255 0.0202,-0.23524 0.0436,-0.46615 0.0627,-0.61869 0.0293,-0.73067 -0.31351,-1.05136 -0.22909,-0.2143 -0.3559,-0.28967 -0.6182,-0.36744 -0.56888,-0.16866 -1.08076,0.0995 -1.08253,0.56699 -7.5e-4,0.19648 -0.0286,0.22044 -0.22903,0.19689 -0.12498,-0.0147 -0.18905,-0.008 -0.23341,0.0248 -0.0601,0.0442 -0.0601,0.047 -0.001,0.15734 0.033,0.0618 0.10877,0.15672 0.16839,0.21097 0.12701,0.11557 0.17643,0.22661 0.14918,0.33517 -0.0107,0.0428 -0.13764,0.2074 -0.28197,0.36573 -0.31424,0.34469 -0.36026,0.41881 -0.30295,0.48786 0.053,0.0638 0.25866,0.0629 0.47949,-0.002 0.38903,-0.11442 0.9189,-0.45777 0.9189,-0.59545 0,-0.0289 0.0143,-0.0526 0.0318,-0.0526 0.0175,0 0.0318,0.0117 0.0318,0.026 0,0.0143 0.0511,0.0858 0.11364,0.1588 0.1195,0.13961 0.24412,0.17595 0.28028,0.0817 0.0462,-0.12036 -0.12741,-0.52843 -0.38969,-0.91606 -0.0833,-0.12316 -0.16342,-0.24394 -0.17797,-0.26839 -0.0223,-0.0375 0.0387,-0.0418 0.39117,-0.0275 0.4681,0.019 0.55055,0.0495 0.62689,0.23224 0.13506,0.32326 -0.043,0.77208 -0.50569,1.27494 -0.26363,0.28649 -0.40215,0.48364 -0.40215,0.57237 0,0.0767 0.007,0.0802 0.13058,0.0636 0.0718,-0.01 0.20403,-0.0639 0.29379,-0.12072 0.44693,-0.28263 0.5093,-0.31488 0.54264,-0.28064 0.0812,0.0834 -0.70901,0.67548 -1.26022,0.94419 -0.28891,0.14084 -0.54659,0.20166 -0.70176,0.16565 -0.0554,-0.0129 -0.18969,-0.0611 -0.29834,-0.10727 -0.22793,-0.0968 -0.27218,-0.10169 -0.32648,-0.0363 -0.0552,0.0665 0.006,0.20372 0.16151,0.3643 0.17736,0.18275 0.42603,0.23421 0.75341,0.15588 z m -1.88829,-3.33313 c 0.2197,-0.23112 0.31301,-0.26834 0.33238,-0.1326 0.007,0.0515 -0.0115,0.0793 -0.0684,0.10094 -0.10152,0.0386 -0.12699,0.0828 -0.10296,0.1785 0.0281,0.11214 0.15053,0.10243 0.25365,-0.0201 0.0922,-0.10961 0.10261,-0.20491 0.0389,-0.35738 -0.0489,-0.11714 -0.22096,-0.27541 -0.29933,-0.27541 -0.13014,0 -0.54775,0.56731 -0.50316,0.68352 0.0364,0.0947 0.14046,0.0418 0.34889,-0.17745 z m -0.45021,-0.29273 c 0.22423,-0.18279 0.43896,-0.45087 0.43896,-0.54802 0,-0.043 -0.008,-0.0782 -0.018,-0.0782 -0.0863,0 -0.42121,0.27775 -0.58907,0.4885 -0.22743,0.28555 -0.12062,0.37307 0.16808,0.13773 z m -0.38139,-0.29766 c 0.0862,-0.078 0.077,-0.20153 -0.015,-0.20153 -0.0914,0 -0.14927,0.0559 -0.14927,0.14399 0,0.12021 0.0685,0.1442 0.16424,0.0575 z"
       id="path2191" />
    <path
       style="fill:#ffffff;stroke-width:0.120042"
       d="m 455.91196,122.2028 c -0.009,-0.0152 -0.0626,-0.0367 -0.11812,-0.0479 -0.0556,-0.0111 -0.0917,-0.0295 -0.0803,-0.0409 0.0114,-0.0114 0.003,-0.0425 -0.0188,-0.0692 -0.0337,-0.0415 -0.0301,-0.0447 0.0241,-0.0222 0.10824,0.0448 0.23821,0.0579 0.23821,0.0239 0,-0.0178 0.0282,-0.025 0.0627,-0.016 0.13402,0.035 0.6059,-0.3271 0.66685,-0.51179 0.0251,-0.0762 0.0258,-0.16482 0.002,-0.30892 -0.0616,-0.3796 -0.0334,-0.44367 0.047,-0.10682 0.0417,0.17468 0.0845,0.34708 0.0952,0.38311 0.0161,0.0543 -0.0365,0.10889 -0.30829,0.31998 -0.58445,0.45385 -0.57823,0.44981 -0.61101,0.39676 z"
       id="path2230" />
    <path
       style="fill:#ffffff;stroke-width:0.120042"
       d="m 449.81369,124.31875 c -0.15798,-0.24172 -0.3979,-1.02473 -0.40919,-1.3355 -0.008,-0.20708 0.0549,-0.31303 0.24032,-0.4076 0.28345,-0.14461 1.04335,-1.02084 1.25851,-1.45117 0.13035,-0.26071 0.18376,-0.45112 0.24213,-0.8632 0.0521,-0.368 0.13958,-0.63522 0.20786,-0.63522 0.0226,0 0.0282,0.0217 0.0145,0.0556 -0.0533,0.13224 -0.0552,0.2938 -0.004,0.3714 0.0721,0.11002 0.15645,0.1481 0.39301,0.17744 0.24388,0.0302 0.32409,0.0931 0.41851,0.32793 0.0845,0.21015 0.19305,0.63831 0.19305,0.76137 0,0.0525 -0.0489,0.18455 -0.10877,0.29338 -0.22071,0.40153 -0.20656,0.59556 0.052,0.71291 0.14206,0.0645 0.57109,0.0886 0.65287,0.0367 0.0656,-0.0416 0.10259,-0.22523 0.1034,-0.51319 8.6e-4,-0.30747 0.0362,-0.49546 0.1064,-0.56564 0.0433,-0.0432 0.058,-0.038 0.14054,0.0504 0.10254,0.10976 0.1652,0.34873 0.1652,0.62999 0,0.32012 0.078,0.38611 0.4907,0.41524 0.32713,0.0231 0.34285,0.007 0.36074,-0.36714 0.0161,-0.33587 -0.0381,-0.71195 -0.12219,-0.84796 -0.0344,-0.0557 -0.062,-0.1559 -0.0616,-0.22405 8.7e-4,-0.15295 0.0992,-0.3765 0.18608,-0.42299 0.0543,-0.0291 0.0809,-0.0202 0.16011,0.053 0.0782,0.0723 0.11811,0.16887 0.22554,0.54531 0.22014,0.77134 0.29294,0.86909 0.7336,0.98498 0.14638,0.0385 0.29941,0.0802 0.34006,0.0927 0.0626,0.0193 -0.0154,0.0725 -0.50817,0.34671 -0.98566,0.54856 -1.95976,0.96465 -2.98005,1.27293 -1.06247,0.32103 -2.09778,0.57712 -2.33317,0.57712 -0.0801,0 -0.12398,-0.0199 -0.15768,-0.0715 z"
       id="path2269" />
    <path
       style="fill:#ffffff;stroke-width:0.120042"
       d="m 449.81369,124.31875 c -0.13529,-0.207 -0.35255,-0.87809 -0.41512,-1.28229 -0.0311,-0.20114 0.0406,-0.33467 0.25261,-0.4703 0.28904,-0.18489 0.76966,-0.70547 1.08701,-1.17737 0.25574,-0.38027 0.32597,-0.57691 0.40841,-1.14339 0.0517,-0.35517 0.13986,-0.61934 0.20672,-0.61934 0.0207,0 0.0284,0.0222 0.0176,0.0504 -0.054,0.1406 -0.0571,0.30081 -0.007,0.37674 0.071,0.10833 0.13952,0.13926 0.38591,0.17415 0.2338,0.0331 0.30693,0.0814 0.40017,0.26405 0.0774,0.15162 0.21819,0.67457 0.21829,0.81075 5e-5,0.0581 -0.0559,0.21535 -0.12696,0.3566 -0.25762,0.51237 -0.11486,0.72983 0.47943,0.73033 0.30294,2.4e-4 0.31562,-0.02 0.34627,-0.55418 0.0272,-0.47436 0.0756,-0.61885 0.18724,-0.55911 0.13575,0.0727 0.22574,0.35185 0.22574,0.70037 0,0.27414 0.07,0.34432 0.38939,0.39033 0.41137,0.0593 0.45937,0.0157 0.46475,-0.42189 0.004,-0.30752 -0.0469,-0.6196 -0.12515,-0.77118 -0.0341,-0.066 -0.0617,-0.17324 -0.0613,-0.23821 8.7e-4,-0.1485 0.1004,-0.37197 0.18608,-0.41782 0.0543,-0.0291 0.0808,-0.0203 0.15972,0.053 0.0769,0.0714 0.11875,0.1712 0.22347,0.53253 0.15491,0.53453 0.26605,0.76925 0.40907,0.86392 0.0981,0.0649 0.17584,0.092 0.58957,0.20531 l 0.15524,0.0425 -0.52049,0.2925 c -1.40775,0.79112 -2.84506,1.32776 -4.74471,1.7715 -0.57222,0.13366 -0.72538,0.14141 -0.79163,0.0401 z"
       id="path2308" />
    <path
       style="fill:#ffffff;stroke-width:0.120042"
       d="m 450.89117,124.23414 c 1.95926,-0.49872 3.14498,-0.95186 4.48846,-1.71531 0.28507,-0.162 0.52515,-0.28771 0.5335,-0.27936 0.0182,0.0182 -0.4297,0.30134 -0.83938,0.53053 -1.10616,0.61882 -2.89272,1.25979 -4.33694,1.55599 -0.54568,0.11191 -0.47059,0.0672 0.15436,-0.0919 z"
       id="path2347" />
    <path
       style="fill:#ffffff;stroke-width:0.120042"
       d=""
       id="path2386" />
    <path
       style="fill:#ffffff;stroke-width:0.120042"
       d="m 453.4969,121.75405 c -0.0554,-0.39915 -0.25451,-0.6359 -0.37395,-0.44466 -0.0585,0.0936 -0.0879,0.0777 -0.0879,-0.0476 0,-0.10427 0.006,-0.11116 0.10322,-0.11104 0.13388,1.4e-4 0.29352,0.0988 0.35631,0.22025 0.0647,0.1252 0.0905,0.34234 0.0548,0.46249 -0.0268,0.0903 -0.0295,0.0862 -0.0525,-0.0794 z"
       id="path2425" />
    <path
       style="fill:#ffffff;stroke-width:0.120042"
       d="m 444.73232,118.25879 -0.0211,-0.15913 -0.16553,0.0211 c -0.091,0.0116 -0.17098,0.0258 -0.17764,0.0316 -0.007,0.006 -0.0385,-0.004 -0.0708,-0.0209 -0.0538,-0.0288 -0.12389,-0.21653 -0.17125,-0.45866 -0.0157,-0.0801 -0.006,-0.0719 0.0607,0.0516 0.0437,0.0807 0.12581,0.1859 0.18257,0.23366 0.0903,0.076 0.12326,0.0849 0.26347,0.0717 0.0881,-0.008 0.18518,-0.0256 0.21562,-0.0385 0.0516,-0.0217 0.0521,-0.0156 0.008,0.0901 -0.0261,0.0624 -0.0474,0.15594 -0.0474,0.20788 0,0.15961 -0.0543,0.13808 -0.0766,-0.0304 z"
       id="path2503" />
    <path
       style="fill:#ffffff;stroke-width:0.120042"
       d="m 443.76997,116.96753 c -0.1509,-0.194 -0.15123,-0.19693 -0.0283,-0.24828 0.0618,-0.0258 0.1379,-0.0469 0.16903,-0.0468 0.0447,1.4e-4 0.0379,0.0151 -0.0325,0.0715 -0.0888,0.071 -0.0889,0.0717 -0.0378,0.19384 0.0689,0.16484 0.0431,0.17574 -0.0704,0.0298 z"
       id="path2542" />
    <path
       style="fill:#ffffff;stroke-width:0.120042"
       d=""
       id="path2581" />
    <path
       style="fill:#ffffff;stroke-width:0.120042"
       d=""
       id="path2620" />
    <path
       style="fill:#ffffff;stroke-width:0.120042"
       d="m 454.63031,113.96614 c -0.0208,-0.0801 -0.0479,-0.10719 -0.12293,-0.12253 -0.1376,-0.0281 -0.17014,-0.0552 -0.17014,-0.14164 0,-0.0616 -0.0235,-0.0826 -0.12199,-0.10916 -0.0671,-0.0181 -0.14924,-0.0629 -0.18253,-0.0997 -0.0333,-0.0368 -0.15071,-0.1331 -0.26095,-0.21404 -0.17896,-0.1314 -0.19362,-0.15019 -0.13694,-0.17549 0.0878,-0.0392 0.11081,-0.11731 0.0519,-0.17624 -0.0648,-0.0648 -0.16265,-0.007 -0.15164,0.09 0.007,0.0574 -0.002,0.063 -0.0518,0.0361 -0.0645,-0.0345 -0.0988,-0.10096 -0.0988,-0.19117 0,-0.0314 -0.0231,-0.0762 -0.0514,-0.0997 -0.0443,-0.0368 -0.0609,-0.0308 -0.1203,0.0437 -0.0944,0.11842 -0.1375,0.10856 -0.17768,-0.0406 -0.0389,-0.14452 -0.0759,-0.15635 -0.18074,-0.0578 -0.0721,0.0677 -0.0817,0.0684 -0.4467,0.032 -0.20517,-0.0204 -0.53025,-0.0464 -0.7224,-0.0576 -0.36062,-0.0211 -0.42878,-0.0432 -0.42878,-0.13942 0,-0.0619 -0.0669,-0.10079 -0.11723,-0.068 -0.0176,0.0115 -0.049,0.053 -0.0697,0.0923 -0.0431,0.0818 -0.11527,0.0939 -0.14216,0.0238 -0.0222,-0.0579 -0.18249,-0.0633 -0.23787,-0.008 -0.0616,0.0615 -0.71462,0.0463 -0.91845,-0.0214 -0.12184,-0.0405 -0.17874,-0.0456 -0.22594,-0.0203 -0.0347,0.0186 -0.17849,0.0338 -0.31954,0.0338 -0.24243,0 -0.25442,-0.003 -0.2194,-0.0593 0.0568,-0.091 0.0113,-0.16908 -0.0916,-0.1572 -0.10571,0.0122 -0.13676,0.11377 -0.0534,0.17471 0.0837,0.0612 -0.007,0.0524 -0.11426,-0.0112 -0.0837,-0.0495 -0.095,-0.0495 -0.17052,0 -0.0847,0.0555 -0.40294,0.069 -0.5595,0.0237 -0.0694,-0.0201 -0.033,-0.0454 0.28967,-0.20142 0.36115,-0.17461 0.4258,-0.22867 0.38879,-0.3251 -0.0229,-0.0595 -0.0729,-0.0592 -0.15254,0.001 -0.0339,0.0256 -0.1007,0.0466 -0.14843,0.0466 -0.0477,0 -0.1295,0.0359 -0.18171,0.0799 -0.0522,0.0439 -0.17838,0.11737 -0.28035,0.16319 -0.10197,0.0458 -0.21734,0.11219 -0.25636,0.1475 -0.0695,0.0629 -0.0966,0.0638 -1.30221,0.044 -1.49525,-0.0246 -1.6952,-0.0447 -2.08415,-0.21012 -0.2622,-0.11148 -0.68485,-0.22443 -0.83985,-0.22443 -0.0552,0 -0.0575,-0.015 -0.0304,-0.1985 0.10236,-0.69344 0.78901,-1.94321 1.48415,-2.70127 0.23962,-0.26131 0.29788,-0.28628 0.52956,-0.22699 0.47898,0.12259 0.95087,0.43913 1.09332,0.73338 0.06,0.12399 0.0667,0.18101 0.0544,0.46538 -0.0121,0.2808 -0.0302,0.36552 -0.13509,0.63453 -0.0666,0.17076 -0.11258,0.319 -0.10216,0.32942 0.0104,0.0104 0.13134,-0.0114 0.26869,-0.0484 0.27435,-0.074 0.37066,-0.0841 0.3407,-0.0356 -0.0108,0.0175 -0.0523,0.0318 -0.0923,0.0318 -0.04,0 -0.10238,0.025 -0.1387,0.0556 -0.0363,0.0306 -0.11102,0.0805 -0.16601,0.11104 -0.11288,0.0626 -0.11982,0.16098 -0.0125,0.17639 0.0365,0.005 0.28644,-0.0609 0.55549,-0.14703 0.26906,-0.0861 0.56066,-0.1724 0.64801,-0.19177 0.29578,-0.0656 1.10959,-0.19119 1.50865,-0.23279 0.53762,-0.056 2.87083,-0.0566 3.22329,-7.3e-4 0.70169,0.11117 1.95969,0.55779 2.23961,0.7951 0.12548,0.10638 0.0275,0.0811 -0.27576,-0.0712 -0.30753,-0.15442 -0.82665,-0.34152 -1.43934,-0.51877 l -0.39701,-0.11485 -1.23868,-0.0123 c -1.35664,-0.0135 -1.79622,0.0107 -2.47218,0.13595 -0.3973,0.0736 -1.41831,0.33725 -1.65676,0.42775 -0.35208,0.13364 -0.51313,0.27088 -0.44577,0.37987 0.0354,0.0572 0.17171,0.0371 0.29558,-0.0436 0.24626,-0.16041 1.1247,-0.41632 1.91293,-0.55729 1.19174,-0.21313 2.4275,-0.24183 3.4476,-0.0801 0.54835,0.087 1.2776,0.29042 1.61603,0.4509 0.55505,0.26319 0.92833,0.5074 0.86792,0.56781 -0.013,0.013 -0.0535,-0.003 -0.09,-0.0365 -0.0365,-0.0331 -0.12596,-0.0921 -0.1987,-0.13125 -0.37835,-0.20346 -0.6268,-0.327 -0.65762,-0.327 -0.019,0 -0.12354,-0.043 -0.2324,-0.0955 -0.34296,-0.16541 -1.10027,-0.3224 -1.10027,-0.22809 0,0.0704 0.18501,0.18961 0.32157,0.20713 0.20562,0.0264 0.74312,0.20278 0.79003,0.2593 0.0829,0.0999 -0.0655,0.0834 -0.39513,-0.044 -0.30447,-0.1176 -0.61836,-0.19335 -0.80382,-0.19397 -0.058,-2e-4 -0.0715,0.0174 -0.0715,0.0936 0,0.10063 0.009,0.1043 0.33439,0.13877 0.0704,0.007 0.27046,0.0672 0.44466,0.13285 0.21257,0.0801 0.37415,0.12054 0.49139,0.12307 0.16804,0.004 0.17508,4.3e-4 0.18474,-0.0836 0.006,-0.048 0.0166,-0.0873 0.0245,-0.0873 0.0433,0 0.55951,0.27903 0.74731,0.40391 0.22508,0.14966 0.26928,0.21935 0.15037,0.23704 -0.0929,0.0138 -0.14974,0.10662 -0.0974,0.15899 0.0314,0.0314 0.0604,0.0309 0.14221,-0.002 0.0565,-0.023 0.13851,-0.0492 0.18218,-0.0583 0.0752,-0.0156 0.0766,-0.0135 0.0256,0.04 -0.0296,0.0311 -0.1225,0.0935 -0.20645,0.13881 -0.10194,0.055 -0.15601,0.10605 -0.16279,0.15378 -0.0143,0.10079 0.0792,0.0937 0.31188,-0.0238 0.10382,-0.0524 0.20703,-0.0948 0.22936,-0.0943 0.07,0.002 -0.13632,0.15984 -0.23401,0.17938 -0.0511,0.0102 -0.11027,0.0431 -0.13147,0.0732 -0.0212,0.03 -0.085,0.0785 -0.14179,0.10779 -0.0645,0.0332 -0.10322,0.0771 -0.10322,0.11689 0,0.0891 0.0899,0.11385 0.1876,0.0515 0.13221,-0.0844 0.54995,-0.2792 0.56544,-0.26372 0.008,0.008 -0.0691,0.0746 -0.17093,0.14858 -0.21644,0.15718 -0.35979,0.2854 -0.35979,0.32183 0,0.0551 0.16918,0.0215 0.34937,-0.0695 0.10382,-0.0524 0.19899,-0.0953 0.21149,-0.0953 0.0782,0 -0.51232,0.47549 -0.74546,0.60026 -0.0608,0.0325 -0.07,0.026 -0.094,-0.0668 z m 0.24054,-0.22105 c 0.0111,-0.0928 -0.0583,-0.16342 -0.13256,-0.1349 -0.0687,0.0263 -0.0661,0.1603 0.004,0.20099 0.0788,0.0458 0.11764,0.0259 0.12865,-0.0661 z m -0.28587,-0.15999 c 0.059,-0.059 0.0451,-0.14595 -0.0269,-0.16882 -0.0836,-0.0265 -0.15728,0.035 -0.15728,0.13142 0,0.0576 0.0173,0.0755 0.073,0.0755 0.0402,0 0.0902,-0.0172 0.11116,-0.0381 z m -0.23408,-0.24414 c 0.0276,-0.0447 -0.0666,-0.10476 -0.14656,-0.0934 -0.0401,0.006 -0.0777,0.0354 -0.0835,0.066 -0.008,0.0444 0.0119,0.0556 0.10103,0.0556 0.0614,0 0.11945,-0.0127 0.12902,-0.0282 z m 0.26611,-0.18349 c 0.0118,-0.0826 -0.10006,-0.13108 -0.16946,-0.0735 -0.0341,0.0283 -0.0372,0.0532 -0.0122,0.0998 0.0447,0.0835 0.16858,0.0655 0.18167,-0.0263 z m -0.61326,-0.0261 c 0,-0.0701 -0.0987,-0.10496 -0.15051,-0.0532 -0.0534,0.0534 -7.2e-4,0.13776 0.0789,0.12645 0.0469,-0.007 0.0716,-0.032 0.0716,-0.0733 z m 0.34938,-0.17512 c 0,-0.06 -0.13133,-0.0809 -0.19197,-0.0306 -0.0674,0.0559 -0.0224,0.0991 0.0917,0.088 0.0636,-0.006 0.10025,-0.0272 0.10025,-0.0574 z m -0.30742,-0.10511 c 0.0127,-0.066 -0.047,-0.14898 -0.10722,-0.14898 -0.06,0 -0.0899,0.12174 -0.0435,0.17758 0.0506,0.061 0.13662,0.0447 0.15072,-0.0286 z m 0.56151,-0.0382 c 0,-0.0725 -0.0159,-0.0971 -0.0674,-0.10446 -0.0823,-0.0117 -0.12009,0.0692 -0.0732,0.15676 0.0509,0.0951 0.14067,0.0617 0.14067,-0.0523 z m -0.88477,-0.0953 c 0.0102,-0.0264 0,-0.07 -0.0221,-0.0969 -0.0357,-0.043 -0.0461,-0.0432 -0.0873,-0.002 -0.0553,0.0553 -0.0295,0.14698 0.0413,0.14698 0.0273,0 0.0579,-0.0216 0.0681,-0.0481 z m -0.98422,-0.0327 c 0.023,-0.06 0.0157,-0.0679 -0.0844,-0.0916 -0.0987,-0.0234 -0.17436,0.0224 -0.14848,0.0898 0.0257,0.067 0.20732,0.0684 0.23287,0.002 z m 1.66254,-0.0463 c 0,-0.0843 -0.0108,-0.0953 -0.0934,-0.0953 -0.0514,0 -0.10206,0.014 -0.11263,0.0311 -0.0352,0.057 0.0469,0.15947 0.12775,0.15947 0.0658,0 0.0783,-0.0152 0.0783,-0.0953 z m -2.08212,0.003 c 0.0294,-0.0477 -0.0142,-0.12254 -0.0818,-0.1402 -0.0693,-0.0181 -0.10961,0.0434 -0.0797,0.12145 0.02,0.052 0.13277,0.0651 0.16143,0.0188 z m 1.07879,-0.0545 c 0.0225,-0.0587 -0.0319,-0.1389 -0.0942,-0.1389 -0.048,0 -0.0913,0.111 -0.062,0.15853 0.0312,0.0504 0.13424,0.0374 0.15613,-0.0196 z m -1.76586,-0.0353 c -0.0131,-0.0679 -0.11995,-0.0933 -0.15487,-0.0368 -0.0366,0.0593 -0.006,0.092 0.0856,0.092 0.0587,0 0.077,-0.0146 0.0692,-0.0552 z m 0.34937,0 c -0.0123,-0.0639 -0.11288,-0.0927 -0.15979,-0.0458 -0.0478,0.0478 -1e-5,0.10103 0.0906,0.10103 0.0588,0 0.0771,-0.0146 0.0692,-0.0552 z m 2.10187,0.008 c 0.0464,-0.0558 0.0223,-0.13689 -0.0487,-0.16415 -0.0823,-0.0316 -0.12675,0.0376 -0.0842,0.13112 0.0418,0.0918 0.0769,0.10048 0.13288,0.033 z m 0.58558,-0.003 c 0.0568,-0.0568 0.017,-0.17248 -0.0593,-0.17248 -0.0239,0 -0.10561,-0.0519 -0.18151,-0.11539 -0.25281,-0.2114 -0.43972,-0.25695 -0.43972,-0.10714 0,0.042 0.0311,0.0771 0.0872,0.0985 0.048,0.0182 0.13276,0.0679 0.18844,0.11037 0.0557,0.0425 0.11576,0.0772 0.13349,0.0772 0.0177,0 0.0708,0.0357 0.11792,0.0794 0.10136,0.0939 0.0911,0.0919 0.15347,0.0296 z m -4.63738,-10e-4 c 0.0567,-0.0218 0.0677,-0.12497 0.0167,-0.15652 -0.0613,-0.0379 -0.18876,0.0151 -0.18876,0.0785 0,0.0797 0.0769,0.11457 0.17208,0.078 z m 3.04123,-0.0333 c 0.0722,-0.0653 0.0779,-0.20152 0.008,-0.20152 -0.141,0 -0.22138,0.12908 -0.13448,0.21598 0.0492,0.0492 0.0568,0.0483 0.12614,-0.0145 z m -2.70305,-0.0756 c 0.0338,-0.0181 0.0614,-0.061 0.0614,-0.0953 0,-0.0503 -0.0218,-0.0624 -0.11216,-0.0624 -0.11628,0 -0.16487,0.0532 -0.13045,0.14292 0.0213,0.0555 0.094,0.0614 0.18117,0.0148 z m 3.43959,-0.0465 c 0.03,-0.0782 -0.0132,-0.14292 -0.0953,-0.14292 -0.0821,0 -0.12529,0.0647 -0.0953,0.14292 0.0101,0.0262 0.0529,0.0476 0.0953,0.0476 0.0423,0 0.0852,-0.0214 0.0953,-0.0476 z m -4.57126,-0.0151 c 0.0781,-0.0297 0.11977,-0.15959 0.0512,-0.15959 -0.11633,0 -0.2288,0.11148 -0.17088,0.16939 0.0267,0.0267 0.0229,0.027 0.11968,-0.01 z m 3.54342,-0.0314 c 0,-0.0882 -0.10254,-0.1372 -0.17545,-0.0839 -0.084,0.0614 -0.0381,0.14628 0.0792,0.14628 0.0745,0 0.0963,-0.0141 0.0963,-0.0624 z m -2.01463,-0.0364 c 0.0243,-0.0393 -0.0399,-0.0908 -0.11336,-0.0908 -0.0734,0 -0.13766,0.0514 -0.11336,0.0908 0.012,0.0194 0.063,0.0353 0.11336,0.0353 0.0503,0 0.10136,-0.0159 0.11336,-0.0353 z m 1.68302,5e-4 c 0.0118,-0.0191 -0.002,-0.0584 -0.0318,-0.0873 -0.0497,-0.0489 -0.0564,-0.0484 -0.098,0.008 -0.0246,0.0331 -0.0371,0.0724 -0.028,0.0873 0.024,0.0388 0.13234,0.0335 0.15779,-0.008 z m -2.84783,-0.0406 c 0.0529,-0.0637 0.008,-0.1521 -0.0718,-0.14068 -0.078,0.0112 -0.10971,0.11648 -0.0471,0.15619 0.0589,0.0373 0.077,0.0349 0.11889,-0.0155 z m 1.49209,-0.007 c 0.0369,-0.0328 -0.0379,-0.10858 -0.10715,-0.10858 -0.0923,0 -0.14352,0.0872 -0.0761,0.12952 0.0382,0.024 0.14671,0.0116 0.18324,-0.0209 z m 0.28505,0.0221 c 0.0708,-0.0449 0.03,-0.14657 -0.0587,-0.14657 -0.0516,0 -0.0825,0.0205 -0.09,0.0597 -0.01,0.0514 0.0395,0.114 0.09,0.114 0.009,0 0.0351,-0.0122 0.0587,-0.0271 z m 0.35385,-0.0191 c 0.0566,-0.0682 0.0147,-0.14979 -0.0707,-0.13761 -0.0814,0.0116 -0.11552,0.116 -0.0512,0.15674 0.0595,0.0377 0.077,0.035 0.12189,-0.0191 z m 0.32004,0.0144 c 0.0793,-0.0424 0.0788,-0.11613 -8.9e-4,-0.14142 -0.12043,-0.0382 -0.26515,0.10764 -0.15207,0.15327 0.0625,0.0252 0.0872,0.0233 0.15296,-0.0119 z m 1.4556,0.004 c 0.0674,-0.0427 0.0163,-0.12977 -0.0761,-0.12977 -0.0924,0 -0.14345,0.0871 -0.0761,0.12977 0.0244,0.0154 0.0586,0.0281 0.0761,0.0281 0.0175,0 0.0517,-0.0126 0.0761,-0.0281 z m -6.13608,-0.0758 c 0.014,-0.0227 0.0897,-0.0597 0.16832,-0.0822 0.0786,-0.0225 0.20724,-0.0775 0.28585,-0.12217 0.0786,-0.0447 0.25012,-0.107 0.38113,-0.13843 0.13102,-0.0314 0.3454,-0.0927 0.47642,-0.13616 0.459,-0.15227 0.69487,-0.2167 0.8312,-0.22707 0.0756,-0.006 0.28043,-0.0333 0.45512,-0.0613 0.44358,-0.0709 1.55923,-0.0993 2.01683,-0.0512 0.52542,0.0552 0.51224,0.0554 0.55166,-0.007 0.0281,-0.0442 0.0255,-0.063 -0.0117,-0.0863 -0.17024,-0.10658 -1.10685,-0.15346 -1.98507,-0.0993 -0.81294,0.0501 -1.63405,0.2235 -2.60441,0.55002 -0.28735,0.0967 -0.8099,0.34787 -0.8099,0.3893 0,0.0999 0.19246,0.15614 0.24457,0.0714 z m 5.76035,0.008 c 0.0359,-0.0192 0.0614,-0.0663 0.0614,-0.11318 0,-0.0715 -0.0114,-0.0792 -0.10323,-0.0703 -0.0811,0.008 -0.10552,0.0262 -0.11394,0.0858 -0.006,0.0417 0.008,0.0879 0.0318,0.10274 0.0537,0.034 0.0509,0.0341 0.12397,-0.005 z m -3.21538,-0.10449 c 0.009,-0.0468 -0.006,-0.056 -0.0789,-0.0476 -0.0566,0.007 -0.0939,0.0317 -0.10085,0.0683 -0.009,0.0468 0.006,0.056 0.0789,0.0476 0.0566,-0.007 0.0939,-0.0317 0.10085,-0.0683 z m 0.3375,-0.017 c 0.0287,-0.0904 -0.0132,-0.16328 -0.0939,-0.16328 -0.093,0 -0.11948,0.0693 -0.0593,0.15516 0.0581,0.0829 0.12826,0.0867 0.15319,0.008 z m 2.60323,0.008 c 0.0643,-0.0247 0.0653,-0.13574 0.001,-0.16026 -0.0553,-0.0212 -0.1735,0.072 -0.1735,0.13682 0,0.0447 0.0862,0.0564 0.17209,0.0234 z m -3.88813,-0.0601 c 0.0437,-0.025 0.12704,-0.0459 0.18527,-0.0465 0.0582,-6.2e-4 0.21296,-0.044 0.34383,-0.0964 0.13088,-0.0524 0.29451,-0.0953 0.36363,-0.0953 0.18329,0 0.34595,-0.076 0.34595,-0.16155 0,-0.0654 -0.0102,-0.0683 -0.17024,-0.0495 -0.0936,0.011 -0.29016,0.0564 -0.43672,0.10081 -0.14656,0.0444 -0.35223,0.10176 -0.45704,0.12739 -0.26462,0.0647 -0.33349,0.0993 -0.33349,0.16746 0,0.10828 0.0397,0.12169 0.15881,0.0536 z m 3.589,-0.0306 c 0,-0.0993 -0.10353,-0.16301 -0.1581,-0.0973 -0.0581,0.07 -0.009,0.17554 0.0808,0.17554 0.0609,0 0.0773,-0.0165 0.0773,-0.0783 z m -0.39961,0.0272 c 0.0652,-0.025 0.0651,-0.16756 -4e-5,-0.19257 -0.0297,-0.0114 -0.0784,0.009 -0.1191,0.0505 -0.0678,0.0687 -0.0679,0.0705 -0.007,0.11557 0.0715,0.0532 0.0621,0.0512 0.12632,0.0265 z m -1.61722,-0.0892 c 0,-0.0809 -0.0598,-0.0972 -0.12336,-0.0336 -0.0761,0.0761 -0.0624,0.11581 0.036,0.10448 0.0614,-0.007 0.0873,-0.0281 0.0873,-0.0709 z m 0.36194,0.016 c 0.0603,-0.0382 0.0201,-0.12977 -0.057,-0.12977 -0.0731,0 -0.17066,0.0875 -0.1446,0.12961 0.0228,0.037 0.14329,0.0371 0.20155,1.4e-4 z m 0.35311,-0.0104 c 0.0502,-0.0314 0.076,-0.0314 0.12619,0 0.0808,0.0505 0.14264,0.05 0.18529,-10e-4 0.0723,-0.0871 -0.0137,-0.13392 -0.24564,-0.13392 -0.23187,0 -0.30452,0.0327 -0.27036,0.12174 0.024,0.0626 0.1162,0.0687 0.20452,0.0135 z m 0.60303,-0.008 c 0.0316,-0.038 0.0316,-0.0573 0,-0.0953 -0.0217,-0.0262 -0.0575,-0.0476 -0.0794,-0.0476 -0.0219,0 -0.0577,0.0214 -0.0794,0.0476 -0.0315,0.038 -0.0315,0.0573 0,0.0953 0.0217,0.0262 0.0575,0.0476 0.0794,0.0476 0.0219,0 0.0577,-0.0214 0.0794,-0.0476 z m 0.50235,-0.2779 c 0.008,-0.0687 -0.007,-0.0938 -0.0693,-0.11751 -0.12867,-0.0489 -1.27933,-0.0572 -1.32703,-0.01 -0.0835,0.0835 0.031,0.10928 0.59048,0.13317 0.3626,0.0155 0.57411,0.0373 0.59865,0.0619 0.0209,0.0209 0.0738,0.0338 0.11757,0.0286 0.0604,-0.007 0.0821,-0.0304 0.0897,-0.0966 z m -1.53458,-0.0715 c 0,-0.0548 -0.0243,-0.0648 -0.17684,-0.0729 -0.20289,-0.0107 -0.34722,0.033 -0.34722,0.10514 0,0.0418 0.0415,0.0482 0.26203,0.0405 0.23778,-0.008 0.26203,-0.0151 0.26203,-0.0727 z"
       id="path2659" />
    <path
       style="fill:#ffffff;stroke-width:0.120042"
       d=""
       id="path2698" />
    <path
       style="fill:#ffffff;stroke-width:0.120042"
       d="m 454.84542,114.24523 c 0,-0.0247 0.0536,-0.0872 0.11911,-0.13882 0.17444,-0.13744 0.61404,-0.41967 0.65368,-0.41967 0.053,0 -0.19277,0.23989 -0.44149,0.43097 -0.22348,0.17169 -0.3313,0.21319 -0.3313,0.12752 z"
       id="path2776" />
    <path
       style="fill:#ffffff;stroke-width:0.120042"
       d="m 455.13127,114.48168 c 0,-0.0421 0.0989,-0.13659 0.30118,-0.28798 0.16565,-0.12396 0.30941,-0.23872 0.31949,-0.25501 0.0101,-0.0163 0.0333,-0.0296 0.0517,-0.0296 0.0184,0 -0.0984,0.14292 -0.25945,0.31761 -0.28838,0.31277 -0.4129,0.38967 -0.4129,0.255 z"
       id="path2815" />
    <path
       style="fill:#ffffff;stroke-width:0.120042"
       d="m 455.37477,114.74544 c -0.0116,-0.0117 -0.0212,-0.0319 -0.0212,-0.0449 0,-0.0366 0.41332,-0.35697 0.43393,-0.33636 0.0193,0.0193 -0.333,0.40244 -0.36995,0.40244 -0.0119,0 -0.0312,-0.01 -0.0428,-0.0212 z"
       id="path2854" />
    <path
       style="fill:#ffffff;stroke-width:0.120042"
       d="m 455.86178,113.86142 c 0.0217,-0.0262 0.0538,-0.0476 0.0713,-0.0476 0.0177,0 0.0143,0.0211 -0.008,0.0476 -0.0217,0.0262 -0.0538,0.0477 -0.0713,0.0477 -0.0177,0 -0.0143,-0.0211 0.008,-0.0477 z"
       id="path2932" />
    <path
       style="fill:#ffffff;stroke-width:0.120042"
       d="m 455.60769,114.93165 c 0,-0.0364 0.21822,-0.24326 0.23689,-0.22458 0.0274,0.0274 -0.14217,0.25011 -0.19039,0.25011 -0.0256,0 -0.0465,-0.0115 -0.0465,-0.0255 z"
       id="path3010" />
    <path
       style="fill:#ffffff;stroke-width:0.120042"
       d="m 455.25684,108.93722 c -0.26971,-0.22533 -0.52103,-0.30049 -1.00483,-0.30049 -0.29254,0 -0.30784,0.0139 -0.21415,0.19509 0.0847,0.16391 0.0259,0.13637 -0.10258,-0.048 -0.0779,-0.11175 -0.15084,-0.18096 -0.20149,-0.19117 -0.15433,-0.0311 -1.07594,-0.0912 -1.12276,-0.0733 -0.0301,0.0116 -0.0411,0.0426 -0.0301,0.0849 0.0161,0.0615 0.005,0.0591 -0.13867,-0.0304 -0.18155,-0.11286 -0.37382,-0.1503 -0.92386,-0.17992 -0.38513,-0.0207 -0.38907,-0.0202 -0.38907,0.0484 v 0.0693 l -0.088,-0.0651 c -0.0484,-0.0358 -0.17346,-0.0784 -0.27791,-0.0947 -0.24786,-0.0386 -1.34721,-0.10882 -1.36865,-0.0874 -0.009,0.009 0.0209,0.0906 0.0668,0.18104 0.12594,0.24853 0.0763,0.26801 -0.0604,0.0237 l -0.11945,-0.2136 -0.29106,1.9e-4 c -0.55211,3.3e-4 -1.80967,0.0651 -2.17738,0.11203 -0.20279,0.0259 -0.60142,0.10608 -0.88584,0.17816 -0.28443,0.0721 -0.5274,0.12077 -0.53994,0.10818 -0.0412,-0.0413 0.12245,-0.14264 0.33764,-0.2091 0.28541,-0.0882 0.969,-0.20949 1.52934,-0.27145 0.99506,-0.11002 2.75757,-0.0953 4.28774,0.0359 0.55839,0.0479 4.24421,0.45168 4.30363,0.47151 0.0275,0.009 -0.19271,0.0329 -0.55013,0.0591 l -0.10547,0.008 0.11719,0.1365 c 0.0645,0.0751 0.11025,0.14343 0.10178,0.15191 -0.008,0.008 -0.0771,-0.0361 -0.15243,-0.0991 z"
       id="path3049" />
    <path
       style="fill:#ffffff;stroke-width:0.120042"
       d="m 454.248,117.86512 c -0.14516,-0.0759 -0.27107,-0.14508 -0.27979,-0.15381 -0.0167,-0.0167 0.54607,-0.86812 0.59298,-0.8971 0.0266,-0.0165 0.31152,0.38756 0.49152,0.6971 0.10401,0.17885 0.11316,0.17734 -0.24498,0.0405 l -0.21237,-0.0811 -0.0192,0.18044 c -0.0105,0.0992 -0.0293,0.21904 -0.0417,0.2662 l -0.0225,0.0858 z"
       id="path3361" />
    <path
       style="fill:#ffffff;stroke-width:0.120042"
       d="m 454.41331,118.39956 c -0.21492,-0.25117 -0.39722,-0.49564 -0.38139,-0.51147 0.007,-0.007 0.13175,0.0468 0.27701,0.11988 l 0.26411,0.1328 0.26693,-0.13239 c 0.14681,-0.0728 0.27151,-0.1278 0.27711,-0.1222 0.0121,0.0121 -0.28165,0.40086 -0.43583,0.57691 l -0.10803,0.12335 z"
       id="path3400" />
    <path
       style="fill:#ffffff;stroke-width:0.120042"
       d="m 450.85941,117.72473 c -0.0699,-0.0318 -0.14666,-0.0815 -0.17063,-0.11047 -0.053,-0.0641 -0.0156,-0.0661 0.0912,-0.005 0.11893,0.068 0.41339,0.0584 0.62609,-0.0205 0.38527,-0.14282 1.06876,-0.57473 1.36691,-0.86379 0.30769,-0.2983 0.15948,-0.33527 -0.25854,-0.0645 -0.30642,0.1985 -0.4073,0.21974 -0.12711,0.0268 0.40424,-0.27841 0.70848,-0.64775 0.79537,-0.96553 l 0.0397,-0.14517 -0.003,0.18301 c -0.004,0.21739 0.0223,0.25631 0.10453,0.1549 0.0975,-0.12021 0.0703,-0.0111 -0.0531,0.21346 -0.16364,0.2977 -0.36849,0.57512 -0.55013,0.74503 -0.31276,0.29255 -0.97558,0.674 -1.44493,0.83156 -0.28004,0.094 -0.25642,0.0928 -0.41602,0.0202 z"
       id="path3439" />
    <path
       style="fill:#ffffff;stroke-width:0.120042"
       d="m 451.25642,116.21477 c 0,-0.007 0.0757,-0.0556 0.16827,-0.10781 0.25029,-0.14125 0.37167,-0.25374 0.37167,-0.34444 0,-0.10545 -0.2131,-0.41263 -0.48438,-0.69821 -0.17751,-0.18687 -0.20911,-0.23417 -0.15646,-0.23417 0.0363,0 0.0793,-0.0239 0.0957,-0.0531 0.0253,-0.0453 0.0378,-0.0374 0.0847,0.0532 0.0302,0.0585 0.15003,0.20741 0.26623,0.331 0.24812,0.26392 0.40967,0.46383 0.51017,0.63134 0.0992,0.16527 0.0589,0.18636 -0.0478,0.0251 -0.0915,-0.13829 -0.17285,-0.17027 -0.17285,-0.068 0,0.0864 -0.18874,0.26063 -0.41009,0.37861 -0.18065,0.0963 -0.22513,0.11337 -0.22513,0.0865 z"
       id="path3478" />
    <path
       style="fill:#ffffff;stroke-width:0.120042"
       d="m 449.95456,113.76654 c -0.0463,-0.0558 -0.0177,-0.15432 0.0394,-0.13558 0.0466,0.0153 0.0739,0.18282 0.0298,0.18282 -0.0165,0 -0.0476,-0.0212 -0.0692,-0.0472 z"
       id="path3517" />
    <path
       style="fill:#ffffff;stroke-width:0.120042"
       d="m 449.73987,114.11435 c -0.0383,-0.0268 -0.0851,-0.10621 -0.10403,-0.17636 -0.0189,-0.0702 -0.0586,-0.15204 -0.0882,-0.18196 -0.0701,-0.0707 -0.0691,-0.22171 0.002,-0.27369 0.0306,-0.0224 0.0556,-0.0588 0.0556,-0.0808 0,-0.0694 -0.35239,-0.0254 -0.47055,0.0587 l -0.10115,0.072 v -0.0782 c 0,-0.0664 0.018,-0.0807 0.1191,-0.0942 0.0655,-0.009 0.17084,-0.0298 0.23408,-0.0467 0.11223,-0.03 1.76515,0.0357 1.80104,0.0716 0.009,0.009 -0.009,0.0436 -0.0403,0.0776 -0.0443,0.049 -0.0677,0.0546 -0.11206,0.0269 -0.0803,-0.0501 -0.16584,-0.008 -0.1538,0.0757 0.0139,0.0967 -0.18178,0.15389 -0.24247,0.0709 -0.0218,-0.0298 -0.0561,-0.044 -0.0762,-0.0316 -0.0201,0.0124 -0.0366,0.006 -0.0366,-0.015 0,-0.0251 0.0326,-0.0311 0.0979,-0.018 0.12858,0.0257 0.21973,-0.0257 0.21973,-0.12392 0,-0.0684 -0.0141,-0.0783 -0.11218,-0.0783 -0.0617,0 -0.16257,0.0211 -0.22414,0.0468 -0.0856,0.0358 -0.12551,0.0383 -0.16946,0.0109 -0.061,-0.0381 -0.1612,-0.0167 -0.1612,0.0344 0,0.0168 0.0215,0.052 0.0479,0.0784 0.03,0.03 0.0358,0.0553 0.0157,0.0678 -0.0177,0.011 -0.053,0.0602 -0.0785,0.10935 -0.0374,0.0724 -0.0389,0.10522 -0.008,0.17242 0.0212,0.0457 0.06,0.0836 0.0862,0.0842 0.0316,8.3e-4 0.0171,0.0281 -0.0428,0.0808 -0.0564,0.0496 -0.11217,0.0727 -0.1482,0.0612 -0.0317,-0.0101 -0.0669,-0.003 -0.0782,0.0147 -0.03,0.0485 -0.15105,0.0403 -0.23103,-0.0157 z m 0.0497,-0.18391 c 0.007,-0.0608 -0.004,-0.0849 -0.0407,-0.0849 -0.0602,0 -0.0951,0.0749 -0.068,0.14557 0.0287,0.0748 0.0972,0.0365 0.10871,-0.0607 z m 0.28545,-0.20239 c 0.007,-0.0675 -0.006,-0.10292 -0.0437,-0.11721 -0.11779,-0.0452 -0.1949,0.13646 -0.085,0.20034 0.0824,0.0479 0.11797,0.0249 0.12875,-0.0831 z m -0.26374,-0.2954 c 0,-0.0284 -0.0353,-0.0517 -0.0873,-0.0577 -0.0711,-0.008 -0.0873,0.003 -0.0873,0.0577 0,0.0552 0.0162,0.0659 0.0873,0.0577 0.052,-0.006 0.0873,-0.0293 0.0873,-0.0577 z"
       id="path3556" />
    <path
       style="fill:#ffffff;stroke-width:0.120042"
       d="m 451.44009,113.47571 c 0.0146,-0.0764 0.009,-0.0825 -0.0679,-0.0679 -0.0462,0.009 -0.084,0.004 -0.084,-0.0113 0,-0.0364 0.22979,-0.035 0.32709,0.002 0.0424,0.0161 0.0849,0.059 0.0944,0.0953 0.0157,0.06 0.003,0.066 -0.13418,0.066 -0.14659,0 -0.15091,-0.003 -0.13537,-0.084 z"
       id="path3595" />
    <path
       style="fill:#ffffff;stroke-width:0.120042"
       d="m 451.89268,113.49424 c 0.0423,-0.0789 0.16796,-0.0722 0.18359,0.01 0.009,0.0446 -0.012,0.0556 -0.10401,0.0556 -0.10589,0 -0.11195,-0.005 -0.0796,-0.0654 z"
       id="path3634" />
    <path
       style="fill:#ffffff;stroke-width:0.120042"
       d="m 452.42307,113.65498 c -0.0299,-0.0349 -0.0772,-0.0635 -0.10499,-0.0635 -0.0724,0 -0.0372,-0.0775 0.0404,-0.089 0.046,-0.007 0.0842,0.0232 0.13143,0.10323 0.0737,0.12492 0.0272,0.15919 -0.0668,0.0493 z"
       id="path3712" />
    <path
       style="fill:#ffffff;stroke-width:0.120042"
       d="m 448.83108,115.57566 c -0.58395,-0.0577 -0.77308,-0.0847 -0.72135,-0.10317 0.0249,-0.009 0.20357,0.002 0.39701,0.0241 0.31512,0.0361 0.36488,0.0348 0.47816,-0.0128 0.10221,-0.0429 0.14004,-0.0458 0.19742,-0.0151 0.0558,0.0298 0.0814,0.0293 0.11972,-0.002 0.0663,-0.055 0.0612,-0.0936 -0.0161,-0.12221 -0.0635,-0.0235 -0.0633,-0.0254 0.0132,-0.0973 0.057,-0.0535 0.0922,-0.0654 0.13035,-0.0441 0.0473,0.0265 0.0475,0.0332 0.003,0.0705 -0.0789,0.0655 -0.0617,0.20994 0.034,0.28522 l 0.0837,0.0658 -0.15514,-0.004 c -0.0853,-0.002 -0.33898,-0.0222 -0.56367,-0.0444 z"
       id="path3751" />
    <rect
       style="fill:#ffffff;stroke-width:0.180942"
       id="rect3857"
       width="3.2915051"
       height="2.2507868"
       x="443.76996"
       y="114.71674" />
    <rect
       style="fill:#ffffff;stroke-width:0.180942"
       id="rect3859"
       width="2.4746394"
       height="1.6747482"
       x="442.92938"
       y="114.49043" />
  </g>
</svg>
