<?xml version="1.0" encoding="UTF-8" standalone="no"?>
<!-- Created with Inkscape (http://www.inkscape.org/) -->

<svg
   version="1.1"
   id="svg870"
   width="87"
   height="73"
   viewBox="0 0 86.999991 73"
   sodipodi:docname="logo-dark.svg"
   inkscape:version="1.1.1 (1:1.1+202109281949+c3084ef5ed)"
   xmlns:inkscape="http://www.inkscape.org/namespaces/inkscape"
   xmlns:sodipodi="http://sodipodi.sourceforge.net/DTD/sodipodi-0.dtd"
   xmlns="http://www.w3.org/2000/svg"
   xmlns:svg="http://www.w3.org/2000/svg">
  <defs
     id="defs874" />
  <sodipodi:namedview
     id="namedview872"
     pagecolor="#ffffff"
     bordercolor="#666666"
     borderopacity="1.0"
     inkscape:pageshadow="2"
     inkscape:pageopacity="0.0"
     inkscape:pagecheckerboard="0"
     showgrid="false"
     fit-margin-top="0"
     fit-margin-left="0"
     fit-margin-right="0"
     fit-margin-bottom="0"
     inkscape:zoom="0.79393698"
     inkscape:cx="-5.0381833"
     inkscape:cy="190.19142"
     inkscape:window-width="1920"
     inkscape:window-height="1031"
     inkscape:window-x="0"
     inkscape:window-y="25"
     inkscape:window-maximized="1"
     inkscape:current-layer="g876" />
  <g
     inkscape:groupmode="layer"
     inkscape:label="Image"
     id="g876"
     transform="translate(-3.5331144,-2.3042567)">
    <path
       style="fill:#000000;stroke-width:0.240807"
       d="m 27.41083,63.031405 v -4.08075 h 3.86873 3.86874 v 4.08075 4.08075 h -3.86874 -3.86873 z m 31.88773,-0.006 v -4.08688 l 3.81012,0.0679 3.81011,0.0679 0.0644,4.01892 0.0644,4.01892 h -3.87454 l -3.87454,10e-6 v -4.0869 z M 3.72951,54.870015 v -4.08074 h 3.86873 3.86873 v 4.08074 4.08075 H 7.59824 3.72951 Z m 15.94386,0 v -4.08074 h 3.63426 3.63427 v 4.08074 4.08075 h -3.63427 -3.63426 z m 47.83159,-0.006 v -4.08721 l 3.57565,0.0682 3.57563,0.0682 0.0644,4.01892 0.0644,4.01892 H 71.14496 67.5049 Z m 15.47492,2e-4 v -4.08688 l 3.81012,0.0679 3.81011,0.0679 0.0644,4.01892 0.0644,4.01892 h -3.87453 l -3.87455,6e-5 v -4.08686 z M 3.72951,46.461445 v -3.83343 h 3.86873 3.86873 v 3.83343 3.83344 H 7.59824 3.72951 Z m 15.94386,0 v -3.83343 h 3.63426 3.63427 v 3.83343 3.83344 h -3.63427 -3.63426 z m 7.73746,0 v -3.83343 h 3.86873 3.86874 v 3.83343 3.83344 h -3.86874 -3.86873 z m 8.2064,0 v -3.83343 h 3.63427 3.63426 v 3.83343 3.83344 H 39.2515 35.61723 Z m 7.73747,-0.006 v -3.83987 l 3.57564,0.0682 3.57565,0.0682 0.0647,3.7716 0.0647,3.77161 h -3.64038 -3.64036 z m 7.73746,2e-4 v -3.83956 l 3.81012,0.0679 3.81011,0.0679 0.0647,3.7716 0.0647,3.7716 h -3.87485 -3.87483 z m 8.2064,0 v -3.83956 l 3.81012,0.0679 3.81011,0.0679 0.0647,3.7716 0.0647,3.7716 h -3.87484 -3.87484 z m 8.2064,-2e-4 v -3.83987 l 3.57565,0.0682 3.57563,0.0682 0.0647,3.7716 0.0647,3.77161 h -3.64036 -3.64037 z m 15.47492,2e-4 v -3.83956 l 3.81012,0.0679 3.81011,0.0679 0.0647,3.7716 0.0647,3.7716 h -3.87484 l -3.87484,6e-5 v -3.83954 z M 3.72951,38.176465 v -3.95709 h 3.86873 3.86873 v 3.95709 3.95709 H 7.59824 3.72951 Z m 8.2064,0 v -3.95709 h 3.63426 3.63426 v 3.95709 3.95709 h -3.63426 -3.63426 z m 7.73746,0 v -3.95709 h 3.63426 3.63427 v 3.95709 3.95709 h -3.63427 -3.63426 z m 7.73746,0 v -3.95709 h 3.86873 3.86874 v 3.95709 3.95709 h -3.86874 -3.86873 z m 8.2064,0 v -3.95709 h 3.63427 3.63426 v 3.95709 3.95709 H 39.2515 35.61723 Z m 7.73747,0 v -3.95709 h 3.63426 3.63426 v 3.95709 3.95709 H 46.98896 43.3547 Z m 7.73746,0.0474 c 0,-2.15711 0.0437,-3.96838 0.0971,-4.02505 0.0533,-0.0566 1.79696,-0.0699 3.87462,-0.0294 l 3.77758,0.0737 -0.0645,3.88339 -0.0645,3.88339 -3.81011,0.0679 -3.81012,0.0679 z m 8.2064,-0.0474 v -3.95709 h 3.86873 3.86873 v 3.95709 3.95709 h -3.86873 -3.86873 z m 8.2064,0 v -3.95709 h 3.63427 3.63425 v 3.95709 3.95709 h -3.63425 -3.63427 z m 7.73746,0 v -3.95709 h 3.63426 3.63426 v 3.95709 3.95709 h -3.63426 -3.63426 z m 7.73746,0 v -3.95709 h 3.86873 3.86873 v 3.95709 3.95709 h -3.86873 -3.86873 z m -71.04397,-8.28516 v -3.83343 h 3.63426 3.63426 v 3.83343 3.83343 h -3.63426 -3.63426 z m 7.73746,0 v -3.83343 h 3.63426 3.63427 v 3.83343 3.83343 h -3.63427 -3.63426 z m 15.94386,0 v -3.83343 h 3.63427 3.63426 v 3.83343 3.83343 H 39.2515 35.61723 Z m 7.73747,0 v -3.83343 h 3.63426 3.63426 v 3.83343 3.83343 H 46.98896 43.3547 Z m 7.73746,0.006 v -3.83956 h 3.87483 3.87484 l -0.0647,3.7716 -0.0647,3.7716 -3.81011,0.0679 -3.81012,0.0679 v -3.83954 z m 16.4128,2e-4 v -3.83988 h 3.64037 3.64036 l -0.0647,3.7716 -0.0647,3.7716 -3.57565,0.0683 -3.57565,0.0682 v -3.83989 z m 7.73746,0 v -3.83988 h 3.64037 3.64037 l -0.0647,3.7716 -0.0647,3.7716 -3.57565,0.0683 -3.57564,0.0682 v -3.83973 z m -55.56905,-8.1678 v -3.83343 h 3.63426 3.63427 v 3.83343 3.83343 h -3.63427 -3.63426 z m 7.73746,0 v -3.83343 h 3.86873 3.86874 v 3.83343 3.83343 h -3.86874 -3.86873 z m 8.2064,0 v -3.83343 h 3.63427 3.63426 v 3.83343 3.83343 H 39.2515 35.61723 Z m 7.73747,0 v -3.83343 h 3.63426 3.63426 v 3.83343 3.83343 H 46.98896 43.3547 Z m 7.73746,0.006 v -3.83957 h 3.87483 3.87484 l -0.0647,3.7716 -0.0647,3.7716 -3.81011,0.0679 -3.81012,0.0679 v -3.83956 z m 8.2064,0 v -3.83957 h 3.87484 3.87483 l -0.0647,3.7716 -0.0647,3.7716 -3.81011,0.0679 -3.81012,0.0679 v -3.83956 z m 8.2064,2e-4 v -3.83984 h 3.64037 3.64036 l -0.0647,3.7716 -0.0647,3.77161 -3.57565,0.0682 -3.57565,0.0683 v -3.8398 z m -40.09413,-8.41513 v -4.08075 h 3.86873 3.86874 v 4.08075 4.08075 h -3.86874 -3.86873 z m 31.88773,0.006 v -4.08688 h 3.87454 3.87454 l -0.0644,4.01891 -0.0644,4.01893 -3.81011,0.0679 -3.81011,0.0679 z"
       id="path978" />
  </g>
</svg>
